<svg xmlns="http://www.w3.org/2000/svg" xmlns:xlink="http://www.w3.org/1999/xlink" width="600" height="400" viewBox="0 0 2400 1600">
<defs>
  <clipPath id="clip150">
    <rect x="0" y="0" width="2400" height="1600"></rect>
  </clipPath>
</defs>
<path clip-path="url(#clip150)" d="M0 1600 L2400 1600 L2400 0 L0 0  Z" fill="#ffffff" fill-rule="evenodd" fill-opacity="1"></path>
<defs>
  <clipPath id="clip151">
    <rect x="480" y="0" width="1681" height="1600"></rect>
  </clipPath>
</defs>
<path clip-path="url(#clip150)" d="M272.297 1423.18 L2352.76 1423.18 L2352.76 123.472 L272.297 123.472  Z" fill="#ffffff" fill-rule="evenodd" fill-opacity="1"></path>
<defs>
  <clipPath id="clip152">
    <rect x="272" y="123" width="2081" height="1301"></rect>
  </clipPath>
</defs>
<polyline clip-path="url(#clip152)" style="stroke:#000000; stroke-linecap:round; stroke-linejoin:round; stroke-width:2; stroke-opacity:0.1; fill:none" points="605.832,1423.18 605.832,123.472 "></polyline>
<polyline clip-path="url(#clip152)" style="stroke:#000000; stroke-linecap:round; stroke-linejoin:round; stroke-width:2; stroke-opacity:0.1; fill:none" points="973.404,1423.18 973.404,123.472 "></polyline>
<polyline clip-path="url(#clip152)" style="stroke:#000000; stroke-linecap:round; stroke-linejoin:round; stroke-width:2; stroke-opacity:0.1; fill:none" points="1340.98,1423.18 1340.98,123.472 "></polyline>
<polyline clip-path="url(#clip152)" style="stroke:#000000; stroke-linecap:round; stroke-linejoin:round; stroke-width:2; stroke-opacity:0.1; fill:none" points="1708.55,1423.18 1708.55,123.472 "></polyline>
<polyline clip-path="url(#clip152)" style="stroke:#000000; stroke-linecap:round; stroke-linejoin:round; stroke-width:2; stroke-opacity:0.1; fill:none" points="2076.12,1423.18 2076.12,123.472 "></polyline>
<polyline clip-path="url(#clip152)" style="stroke:#000000; stroke-linecap:round; stroke-linejoin:round; stroke-width:2; stroke-opacity:0.1; fill:none" points="272.297,1423.18 2352.76,1423.18 "></polyline>
<polyline clip-path="url(#clip152)" style="stroke:#000000; stroke-linecap:round; stroke-linejoin:round; stroke-width:2; stroke-opacity:0.1; fill:none" points="272.297,1098.25 2352.76,1098.25 "></polyline>
<polyline clip-path="url(#clip152)" style="stroke:#000000; stroke-linecap:round; stroke-linejoin:round; stroke-width:2; stroke-opacity:0.1; fill:none" points="272.297,773.326 2352.76,773.326 "></polyline>
<polyline clip-path="url(#clip152)" style="stroke:#000000; stroke-linecap:round; stroke-linejoin:round; stroke-width:2; stroke-opacity:0.1; fill:none" points="272.297,448.399 2352.76,448.399 "></polyline>
<polyline clip-path="url(#clip152)" style="stroke:#000000; stroke-linecap:round; stroke-linejoin:round; stroke-width:2; stroke-opacity:0.1; fill:none" points="272.297,123.472 2352.76,123.472 "></polyline>
<polyline clip-path="url(#clip150)" style="stroke:#000000; stroke-linecap:round; stroke-linejoin:round; stroke-width:4; stroke-opacity:1; fill:none" points="272.297,1423.18 2352.76,1423.18 "></polyline>
<polyline clip-path="url(#clip150)" style="stroke:#000000; stroke-linecap:round; stroke-linejoin:round; stroke-width:4; stroke-opacity:1; fill:none" points="605.832,1423.18 605.832,1404.28 "></polyline>
<polyline clip-path="url(#clip150)" style="stroke:#000000; stroke-linecap:round; stroke-linejoin:round; stroke-width:4; stroke-opacity:1; fill:none" points="973.404,1423.18 973.404,1404.28 "></polyline>
<polyline clip-path="url(#clip150)" style="stroke:#000000; stroke-linecap:round; stroke-linejoin:round; stroke-width:4; stroke-opacity:1; fill:none" points="1340.98,1423.18 1340.98,1404.28 "></polyline>
<polyline clip-path="url(#clip150)" style="stroke:#000000; stroke-linecap:round; stroke-linejoin:round; stroke-width:4; stroke-opacity:1; fill:none" points="1708.55,1423.18 1708.55,1404.28 "></polyline>
<polyline clip-path="url(#clip150)" style="stroke:#000000; stroke-linecap:round; stroke-linejoin:round; stroke-width:4; stroke-opacity:1; fill:none" points="2076.12,1423.18 2076.12,1404.28 "></polyline>
<path clip-path="url(#clip150)" d="M565.45 1451.02 L583.806 1451.02 L583.806 1454.96 L569.732 1454.96 L569.732 1463.43 Q570.751 1463.08 571.769 1462.92 Q572.788 1462.73 573.806 1462.73 Q579.593 1462.73 582.973 1465.9 Q586.353 1469.08 586.353 1474.49 Q586.353 1480.07 582.88 1483.17 Q579.408 1486.25 573.089 1486.25 Q570.913 1486.25 568.644 1485.88 Q566.399 1485.51 563.992 1484.77 L563.992 1480.07 Q566.075 1481.2 568.297 1481.76 Q570.519 1482.32 572.996 1482.32 Q577.001 1482.32 579.339 1480.21 Q581.677 1478.1 581.677 1474.49 Q581.677 1470.88 579.339 1468.77 Q577.001 1466.67 572.996 1466.67 Q571.121 1466.67 569.246 1467.08 Q567.394 1467.5 565.45 1468.38 L565.45 1451.02 Z" fill="#000000" fill-rule="nonzero" fill-opacity="1"></path><path clip-path="url(#clip150)" d="M605.565 1454.1 Q601.954 1454.1 600.126 1457.66 Q598.32 1461.2 598.32 1468.33 Q598.32 1475.44 600.126 1479.01 Q601.954 1482.55 605.565 1482.55 Q609.2 1482.55 611.005 1479.01 Q612.834 1475.44 612.834 1468.33 Q612.834 1461.2 611.005 1457.66 Q609.2 1454.1 605.565 1454.1 M605.565 1450.39 Q611.376 1450.39 614.431 1455 Q617.51 1459.58 617.51 1468.33 Q617.51 1477.06 614.431 1481.67 Q611.376 1486.25 605.565 1486.25 Q599.755 1486.25 596.677 1481.67 Q593.621 1477.06 593.621 1468.33 Q593.621 1459.58 596.677 1455 Q599.755 1450.39 605.565 1450.39 Z" fill="#000000" fill-rule="nonzero" fill-opacity="1"></path><path clip-path="url(#clip150)" d="M635.727 1454.1 Q632.116 1454.1 630.288 1457.66 Q628.482 1461.2 628.482 1468.33 Q628.482 1475.44 630.288 1479.01 Q632.116 1482.55 635.727 1482.55 Q639.362 1482.55 641.167 1479.01 Q642.996 1475.44 642.996 1468.33 Q642.996 1461.2 641.167 1457.66 Q639.362 1454.1 635.727 1454.1 M635.727 1450.39 Q641.537 1450.39 644.593 1455 Q647.672 1459.58 647.672 1468.33 Q647.672 1477.06 644.593 1481.67 Q641.537 1486.25 635.727 1486.25 Q629.917 1486.25 626.839 1481.67 Q623.783 1477.06 623.783 1468.33 Q623.783 1459.58 626.839 1455 Q629.917 1450.39 635.727 1450.39 Z" fill="#000000" fill-rule="nonzero" fill-opacity="1"></path><path clip-path="url(#clip150)" d="M931.68 1451.02 L953.902 1451.02 L953.902 1453.01 L941.356 1485.58 L936.471 1485.58 L948.277 1454.96 L931.68 1454.96 L931.68 1451.02 Z" fill="#000000" fill-rule="nonzero" fill-opacity="1"></path><path clip-path="url(#clip150)" d="M963.068 1451.02 L981.425 1451.02 L981.425 1454.96 L967.351 1454.96 L967.351 1463.43 Q968.369 1463.08 969.388 1462.92 Q970.406 1462.73 971.425 1462.73 Q977.212 1462.73 980.591 1465.9 Q983.971 1469.08 983.971 1474.49 Q983.971 1480.07 980.499 1483.17 Q977.027 1486.25 970.707 1486.25 Q968.531 1486.25 966.263 1485.88 Q964.017 1485.51 961.61 1484.77 L961.61 1480.07 Q963.693 1481.2 965.916 1481.76 Q968.138 1482.32 970.615 1482.32 Q974.619 1482.32 976.957 1480.21 Q979.295 1478.1 979.295 1474.49 Q979.295 1470.88 976.957 1468.77 Q974.619 1466.67 970.615 1466.67 Q968.74 1466.67 966.865 1467.08 Q965.013 1467.5 963.068 1468.38 L963.068 1451.02 Z" fill="#000000" fill-rule="nonzero" fill-opacity="1"></path><path clip-path="url(#clip150)" d="M1003.18 1454.1 Q999.573 1454.1 997.744 1457.66 Q995.939 1461.2 995.939 1468.33 Q995.939 1475.44 997.744 1479.01 Q999.573 1482.55 1003.18 1482.55 Q1006.82 1482.55 1008.62 1479.01 Q1010.45 1475.44 1010.45 1468.33 Q1010.45 1461.2 1008.62 1457.66 Q1006.82 1454.1 1003.18 1454.1 M1003.18 1450.39 Q1008.99 1450.39 1012.05 1455 Q1015.13 1459.58 1015.13 1468.33 Q1015.13 1477.06 1012.05 1481.67 Q1008.99 1486.25 1003.18 1486.25 Q997.374 1486.25 994.295 1481.67 Q991.24 1477.06 991.24 1468.33 Q991.24 1459.58 994.295 1455 Q997.374 1450.39 1003.18 1450.39 Z" fill="#000000" fill-rule="nonzero" fill-opacity="1"></path><path clip-path="url(#clip150)" d="M1285.5 1481.64 L1293.14 1481.64 L1293.14 1455.28 L1284.83 1456.95 L1284.83 1452.69 L1293.09 1451.02 L1297.77 1451.02 L1297.77 1481.64 L1305.41 1481.64 L1305.41 1485.58 L1285.5 1485.58 L1285.5 1481.64 Z" fill="#000000" fill-rule="nonzero" fill-opacity="1"></path><path clip-path="url(#clip150)" d="M1324.85 1454.1 Q1321.24 1454.1 1319.41 1457.66 Q1317.61 1461.2 1317.61 1468.33 Q1317.61 1475.44 1319.41 1479.01 Q1321.24 1482.55 1324.85 1482.55 Q1328.49 1482.55 1330.29 1479.01 Q1332.12 1475.44 1332.12 1468.33 Q1332.12 1461.2 1330.29 1457.66 Q1328.49 1454.1 1324.85 1454.1 M1324.85 1450.39 Q1330.66 1450.39 1333.72 1455 Q1336.8 1459.58 1336.8 1468.33 Q1336.8 1477.06 1333.72 1481.67 Q1330.66 1486.25 1324.85 1486.25 Q1319.04 1486.25 1315.96 1481.67 Q1312.91 1477.06 1312.91 1468.33 Q1312.91 1459.58 1315.96 1455 Q1319.04 1450.39 1324.85 1450.39 Z" fill="#000000" fill-rule="nonzero" fill-opacity="1"></path><path clip-path="url(#clip150)" d="M1355.02 1454.1 Q1351.4 1454.1 1349.58 1457.66 Q1347.77 1461.2 1347.77 1468.33 Q1347.77 1475.44 1349.58 1479.01 Q1351.4 1482.55 1355.02 1482.55 Q1358.65 1482.55 1360.46 1479.01 Q1362.28 1475.44 1362.28 1468.33 Q1362.28 1461.2 1360.46 1457.66 Q1358.65 1454.1 1355.02 1454.1 M1355.02 1450.39 Q1360.83 1450.39 1363.88 1455 Q1366.96 1459.58 1366.96 1468.33 Q1366.96 1477.06 1363.88 1481.67 Q1360.83 1486.25 1355.02 1486.25 Q1349.21 1486.25 1346.13 1481.67 Q1343.07 1477.06 1343.07 1468.33 Q1343.07 1459.58 1346.13 1455 Q1349.21 1450.39 1355.02 1450.39 Z" fill="#000000" fill-rule="nonzero" fill-opacity="1"></path><path clip-path="url(#clip150)" d="M1385.18 1454.1 Q1381.57 1454.1 1379.74 1457.66 Q1377.93 1461.2 1377.93 1468.33 Q1377.93 1475.44 1379.74 1479.01 Q1381.57 1482.55 1385.18 1482.55 Q1388.81 1482.55 1390.62 1479.01 Q1392.45 1475.44 1392.45 1468.33 Q1392.45 1461.2 1390.62 1457.66 Q1388.81 1454.1 1385.18 1454.1 M1385.18 1450.39 Q1390.99 1450.39 1394.04 1455 Q1397.12 1459.58 1397.12 1468.33 Q1397.12 1477.06 1394.04 1481.67 Q1390.99 1486.25 1385.18 1486.25 Q1379.37 1486.25 1376.29 1481.67 Q1373.23 1477.06 1373.23 1468.33 Q1373.23 1459.58 1376.29 1455 Q1379.37 1450.39 1385.18 1450.39 Z" fill="#000000" fill-rule="nonzero" fill-opacity="1"></path><path clip-path="url(#clip150)" d="M1653.07 1481.64 L1660.71 1481.64 L1660.71 1455.28 L1652.4 1456.95 L1652.4 1452.69 L1660.67 1451.02 L1665.34 1451.02 L1665.34 1481.64 L1672.98 1481.64 L1672.98 1485.58 L1653.07 1485.58 L1653.07 1481.64 Z" fill="#000000" fill-rule="nonzero" fill-opacity="1"></path><path clip-path="url(#clip150)" d="M1686.45 1481.64 L1702.77 1481.64 L1702.77 1485.58 L1680.83 1485.58 L1680.83 1481.64 Q1683.49 1478.89 1688.07 1474.26 Q1692.68 1469.61 1693.86 1468.27 Q1696.11 1465.74 1696.99 1464.01 Q1697.89 1462.25 1697.89 1460.56 Q1697.89 1457.8 1695.94 1456.07 Q1694.02 1454.33 1690.92 1454.33 Q1688.72 1454.33 1686.27 1455.09 Q1683.84 1455.86 1681.06 1457.41 L1681.06 1452.69 Q1683.88 1451.55 1686.34 1450.97 Q1688.79 1450.39 1690.83 1450.39 Q1696.2 1450.39 1699.39 1453.08 Q1702.59 1455.77 1702.59 1460.26 Q1702.59 1462.39 1701.78 1464.31 Q1700.99 1466.2 1698.88 1468.8 Q1698.31 1469.47 1695.2 1472.69 Q1692.1 1475.88 1686.45 1481.64 Z" fill="#000000" fill-rule="nonzero" fill-opacity="1"></path><path clip-path="url(#clip150)" d="M1712.63 1451.02 L1730.99 1451.02 L1730.99 1454.96 L1716.92 1454.96 L1716.92 1463.43 Q1717.94 1463.08 1718.95 1462.92 Q1719.97 1462.73 1720.99 1462.73 Q1726.78 1462.73 1730.16 1465.9 Q1733.54 1469.08 1733.54 1474.49 Q1733.54 1480.07 1730.06 1483.17 Q1726.59 1486.25 1720.27 1486.25 Q1718.1 1486.25 1715.83 1485.88 Q1713.58 1485.51 1711.18 1484.77 L1711.18 1480.07 Q1713.26 1481.2 1715.48 1481.76 Q1717.7 1482.32 1720.18 1482.32 Q1724.19 1482.32 1726.52 1480.21 Q1728.86 1478.1 1728.86 1474.49 Q1728.86 1470.88 1726.52 1468.77 Q1724.19 1466.67 1720.18 1466.67 Q1718.31 1466.67 1716.43 1467.08 Q1714.58 1467.5 1712.63 1468.38 L1712.63 1451.02 Z" fill="#000000" fill-rule="nonzero" fill-opacity="1"></path><path clip-path="url(#clip150)" d="M1752.75 1454.1 Q1749.14 1454.1 1747.31 1457.66 Q1745.5 1461.2 1745.5 1468.33 Q1745.5 1475.44 1747.31 1479.01 Q1749.14 1482.55 1752.75 1482.55 Q1756.38 1482.55 1758.19 1479.01 Q1760.02 1475.44 1760.02 1468.33 Q1760.02 1461.2 1758.19 1457.66 Q1756.38 1454.1 1752.75 1454.1 M1752.75 1450.39 Q1758.56 1450.39 1761.62 1455 Q1764.69 1459.58 1764.69 1468.33 Q1764.69 1477.06 1761.62 1481.67 Q1758.56 1486.25 1752.75 1486.25 Q1746.94 1486.25 1743.86 1481.67 Q1740.81 1477.06 1740.81 1468.33 Q1740.81 1459.58 1743.86 1455 Q1746.94 1450.39 1752.75 1450.39 Z" fill="#000000" fill-rule="nonzero" fill-opacity="1"></path><path clip-path="url(#clip150)" d="M2020.65 1481.64 L2028.29 1481.64 L2028.29 1455.28 L2019.98 1456.95 L2019.98 1452.69 L2028.24 1451.02 L2032.92 1451.02 L2032.92 1481.64 L2040.55 1481.64 L2040.55 1485.58 L2020.65 1485.58 L2020.65 1481.64 Z" fill="#000000" fill-rule="nonzero" fill-opacity="1"></path><path clip-path="url(#clip150)" d="M2050.04 1451.02 L2068.4 1451.02 L2068.4 1454.96 L2054.33 1454.96 L2054.33 1463.43 Q2055.35 1463.08 2056.36 1462.92 Q2057.38 1462.73 2058.4 1462.73 Q2064.19 1462.73 2067.57 1465.9 Q2070.95 1469.08 2070.95 1474.49 Q2070.95 1480.07 2067.48 1483.17 Q2064 1486.25 2057.68 1486.25 Q2055.51 1486.25 2053.24 1485.88 Q2050.99 1485.51 2048.59 1484.77 L2048.59 1480.07 Q2050.67 1481.2 2052.89 1481.76 Q2055.11 1482.32 2057.59 1482.32 Q2061.6 1482.32 2063.93 1480.21 Q2066.27 1478.1 2066.27 1474.49 Q2066.27 1470.88 2063.93 1468.77 Q2061.6 1466.67 2057.59 1466.67 Q2055.72 1466.67 2053.84 1467.08 Q2051.99 1467.5 2050.04 1468.38 L2050.04 1451.02 Z" fill="#000000" fill-rule="nonzero" fill-opacity="1"></path><path clip-path="url(#clip150)" d="M2090.16 1454.1 Q2086.55 1454.1 2084.72 1457.66 Q2082.91 1461.2 2082.91 1468.33 Q2082.91 1475.44 2084.72 1479.01 Q2086.55 1482.55 2090.16 1482.55 Q2093.79 1482.55 2095.6 1479.01 Q2097.43 1475.44 2097.43 1468.33 Q2097.43 1461.2 2095.6 1457.66 Q2093.79 1454.1 2090.16 1454.1 M2090.16 1450.39 Q2095.97 1450.39 2099.03 1455 Q2102.1 1459.58 2102.1 1468.33 Q2102.1 1477.06 2099.03 1481.67 Q2095.97 1486.25 2090.16 1486.25 Q2084.35 1486.25 2081.27 1481.67 Q2078.22 1477.06 2078.22 1468.33 Q2078.22 1459.58 2081.27 1455 Q2084.35 1450.39 2090.16 1450.39 Z" fill="#000000" fill-rule="nonzero" fill-opacity="1"></path><path clip-path="url(#clip150)" d="M2120.32 1454.1 Q2116.71 1454.1 2114.88 1457.66 Q2113.08 1461.2 2113.08 1468.33 Q2113.08 1475.44 2114.88 1479.01 Q2116.71 1482.55 2120.32 1482.55 Q2123.96 1482.55 2125.76 1479.01 Q2127.59 1475.44 2127.59 1468.33 Q2127.59 1461.2 2125.76 1457.66 Q2123.96 1454.1 2120.32 1454.1 M2120.32 1450.39 Q2126.13 1450.39 2129.19 1455 Q2132.27 1459.58 2132.27 1468.33 Q2132.27 1477.06 2129.19 1481.67 Q2126.13 1486.25 2120.32 1486.25 Q2114.51 1486.25 2111.43 1481.67 Q2108.38 1477.06 2108.38 1468.33 Q2108.38 1459.58 2111.43 1455 Q2114.51 1450.39 2120.32 1450.39 Z" fill="#000000" fill-rule="nonzero" fill-opacity="1"></path><path clip-path="url(#clip150)" d="M1217.44 1520.52 L1257.64 1520.52 L1257.64 1525.93 L1240.77 1525.93 L1240.77 1568.04 L1234.31 1568.04 L1234.31 1525.93 L1217.44 1525.93 L1217.44 1520.52 Z" fill="#000000" fill-rule="nonzero" fill-opacity="1"></path><path clip-path="url(#clip150)" d="M1283.77 1518.52 L1297.26 1518.52 L1297.26 1523.07 L1289.63 1523.07 L1289.63 1572.09 L1297.26 1572.09 L1297.26 1576.64 L1283.77 1576.64 L1283.77 1518.52 Z" fill="#000000" fill-rule="nonzero" fill-opacity="1"></path><path clip-path="url(#clip150)" d="M1330.72 1520.52 L1337.15 1520.52 L1337.15 1540.61 L1358.47 1520.52 L1366.75 1520.52 L1343.16 1542.68 L1368.43 1568.04 L1359.97 1568.04 L1337.15 1545.16 L1337.15 1568.04 L1330.72 1568.04 L1330.72 1520.52 Z" fill="#000000" fill-rule="nonzero" fill-opacity="1"></path><path clip-path="url(#clip150)" d="M1407.61 1518.52 L1407.61 1576.64 L1394.12 1576.64 L1394.12 1572.09 L1401.73 1572.09 L1401.73 1523.07 L1394.12 1523.07 L1394.12 1518.52 L1407.61 1518.52 Z" fill="#000000" fill-rule="nonzero" fill-opacity="1"></path><polyline clip-path="url(#clip150)" style="stroke:#000000; stroke-linecap:round; stroke-linejoin:round; stroke-width:4; stroke-opacity:1; fill:none" points="272.297,1423.18 272.297,123.472 "></polyline>
<polyline clip-path="url(#clip150)" style="stroke:#000000; stroke-linecap:round; stroke-linejoin:round; stroke-width:4; stroke-opacity:1; fill:none" points="272.297,1423.18 291.194,1423.18 "></polyline>
<polyline clip-path="url(#clip150)" style="stroke:#000000; stroke-linecap:round; stroke-linejoin:round; stroke-width:4; stroke-opacity:1; fill:none" points="272.297,1098.25 291.194,1098.25 "></polyline>
<polyline clip-path="url(#clip150)" style="stroke:#000000; stroke-linecap:round; stroke-linejoin:round; stroke-width:4; stroke-opacity:1; fill:none" points="272.297,773.326 291.194,773.326 "></polyline>
<polyline clip-path="url(#clip150)" style="stroke:#000000; stroke-linecap:round; stroke-linejoin:round; stroke-width:4; stroke-opacity:1; fill:none" points="272.297,448.399 291.194,448.399 "></polyline>
<polyline clip-path="url(#clip150)" style="stroke:#000000; stroke-linecap:round; stroke-linejoin:round; stroke-width:4; stroke-opacity:1; fill:none" points="272.297,123.472 291.194,123.472 "></polyline>
<path clip-path="url(#clip150)" d="M114.26 1423.63 L143.936 1423.63 L143.936 1427.57 L114.26 1427.57 L114.26 1423.63 Z" fill="#000000" fill-rule="nonzero" fill-opacity="1"></path><path clip-path="url(#clip150)" d="M158.056 1436.52 L174.376 1436.52 L174.376 1440.46 L152.431 1440.46 L152.431 1436.52 Q155.093 1433.77 159.677 1429.14 Q164.283 1424.49 165.464 1423.15 Q167.709 1420.62 168.589 1418.89 Q169.491 1417.13 169.491 1415.44 Q169.491 1412.68 167.547 1410.95 Q165.626 1409.21 162.524 1409.21 Q160.325 1409.21 157.871 1409.97 Q155.44 1410.74 152.663 1412.29 L152.663 1407.57 Q155.487 1406.43 157.94 1405.85 Q160.394 1405.27 162.431 1405.27 Q167.802 1405.27 170.996 1407.96 Q174.19 1410.65 174.19 1415.14 Q174.19 1417.27 173.38 1419.19 Q172.593 1421.08 170.487 1423.68 Q169.908 1424.35 166.806 1427.57 Q163.704 1430.76 158.056 1436.52 Z" fill="#000000" fill-rule="nonzero" fill-opacity="1"></path><path clip-path="url(#clip150)" d="M194.19 1408.98 Q190.579 1408.98 188.75 1412.54 Q186.945 1416.08 186.945 1423.21 Q186.945 1430.32 188.75 1433.89 Q190.579 1437.43 194.19 1437.43 Q197.825 1437.43 199.63 1433.89 Q201.459 1430.32 201.459 1423.21 Q201.459 1416.08 199.63 1412.54 Q197.825 1408.98 194.19 1408.98 M194.19 1405.27 Q200 1405.27 203.056 1409.88 Q206.135 1414.46 206.135 1423.21 Q206.135 1431.94 203.056 1436.55 Q200 1441.13 194.19 1441.13 Q188.38 1441.13 185.301 1436.55 Q182.246 1431.94 182.246 1423.21 Q182.246 1414.46 185.301 1409.88 Q188.38 1405.27 194.19 1405.27 Z" fill="#000000" fill-rule="nonzero" fill-opacity="1"></path><path clip-path="url(#clip150)" d="M224.352 1408.98 Q220.741 1408.98 218.912 1412.54 Q217.107 1416.08 217.107 1423.21 Q217.107 1430.32 218.912 1433.89 Q220.741 1437.43 224.352 1437.43 Q227.986 1437.43 229.792 1433.89 Q231.621 1430.32 231.621 1423.21 Q231.621 1416.08 229.792 1412.54 Q227.986 1408.98 224.352 1408.98 M224.352 1405.27 Q230.162 1405.27 233.218 1409.88 Q236.297 1414.46 236.297 1423.21 Q236.297 1431.94 233.218 1436.55 Q230.162 1441.13 224.352 1441.13 Q218.542 1441.13 215.463 1436.55 Q212.408 1431.94 212.408 1423.21 Q212.408 1414.46 215.463 1409.88 Q218.542 1405.27 224.352 1405.27 Z" fill="#000000" fill-rule="nonzero" fill-opacity="1"></path><path clip-path="url(#clip150)" d="M114.26 1098.7 L143.936 1098.7 L143.936 1102.64 L114.26 1102.64 L114.26 1098.7 Z" fill="#000000" fill-rule="nonzero" fill-opacity="1"></path><path clip-path="url(#clip150)" d="M154.839 1111.6 L162.477 1111.6 L162.477 1085.23 L154.167 1086.9 L154.167 1082.64 L162.431 1080.97 L167.107 1080.97 L167.107 1111.6 L174.746 1111.6 L174.746 1115.53 L154.839 1115.53 L154.839 1111.6 Z" fill="#000000" fill-rule="nonzero" fill-opacity="1"></path><path clip-path="url(#clip150)" d="M184.237 1080.97 L202.593 1080.97 L202.593 1084.91 L188.519 1084.91 L188.519 1093.38 Q189.538 1093.03 190.556 1092.87 Q191.575 1092.69 192.593 1092.69 Q198.38 1092.69 201.76 1095.86 Q205.139 1099.03 205.139 1104.45 Q205.139 1110.02 201.667 1113.13 Q198.195 1116.2 191.875 1116.2 Q189.7 1116.2 187.431 1115.83 Q185.186 1115.46 182.778 1114.72 L182.778 1110.02 Q184.862 1111.16 187.084 1111.71 Q189.306 1112.27 191.783 1112.27 Q195.787 1112.27 198.125 1110.16 Q200.463 1108.06 200.463 1104.45 Q200.463 1100.83 198.125 1098.73 Q195.787 1096.62 191.783 1096.62 Q189.908 1096.62 188.033 1097.04 Q186.181 1097.45 184.237 1098.33 L184.237 1080.97 Z" fill="#000000" fill-rule="nonzero" fill-opacity="1"></path><path clip-path="url(#clip150)" d="M224.352 1084.05 Q220.741 1084.05 218.912 1087.62 Q217.107 1091.16 217.107 1098.29 Q217.107 1105.39 218.912 1108.96 Q220.741 1112.5 224.352 1112.5 Q227.986 1112.5 229.792 1108.96 Q231.621 1105.39 231.621 1098.29 Q231.621 1091.16 229.792 1087.62 Q227.986 1084.05 224.352 1084.05 M224.352 1080.35 Q230.162 1080.35 233.218 1084.95 Q236.297 1089.54 236.297 1098.29 Q236.297 1107.01 233.218 1111.62 Q230.162 1116.2 224.352 1116.2 Q218.542 1116.2 215.463 1111.62 Q212.408 1107.01 212.408 1098.29 Q212.408 1089.54 215.463 1084.95 Q218.542 1080.35 224.352 1080.35 Z" fill="#000000" fill-rule="nonzero" fill-opacity="1"></path><path clip-path="url(#clip150)" d="M114.26 773.777 L143.936 773.777 L143.936 777.713 L114.26 777.713 L114.26 773.777 Z" fill="#000000" fill-rule="nonzero" fill-opacity="1"></path><path clip-path="url(#clip150)" d="M154.839 786.671 L162.477 786.671 L162.477 760.305 L154.167 761.972 L154.167 757.713 L162.431 756.046 L167.107 756.046 L167.107 786.671 L174.746 786.671 L174.746 790.606 L154.839 790.606 L154.839 786.671 Z" fill="#000000" fill-rule="nonzero" fill-opacity="1"></path><path clip-path="url(#clip150)" d="M194.19 759.125 Q190.579 759.125 188.75 762.689 Q186.945 766.231 186.945 773.361 Q186.945 780.467 188.75 784.032 Q190.579 787.574 194.19 787.574 Q197.825 787.574 199.63 784.032 Q201.459 780.467 201.459 773.361 Q201.459 766.231 199.63 762.689 Q197.825 759.125 194.19 759.125 M194.19 755.421 Q200 755.421 203.056 760.027 Q206.135 764.611 206.135 773.361 Q206.135 782.088 203.056 786.694 Q200 791.277 194.19 791.277 Q188.38 791.277 185.301 786.694 Q182.246 782.088 182.246 773.361 Q182.246 764.611 185.301 760.027 Q188.38 755.421 194.19 755.421 Z" fill="#000000" fill-rule="nonzero" fill-opacity="1"></path><path clip-path="url(#clip150)" d="M224.352 759.125 Q220.741 759.125 218.912 762.689 Q217.107 766.231 217.107 773.361 Q217.107 780.467 218.912 784.032 Q220.741 787.574 224.352 787.574 Q227.986 787.574 229.792 784.032 Q231.621 780.467 231.621 773.361 Q231.621 766.231 229.792 762.689 Q227.986 759.125 224.352 759.125 M224.352 755.421 Q230.162 755.421 233.218 760.027 Q236.297 764.611 236.297 773.361 Q236.297 782.088 233.218 786.694 Q230.162 791.277 224.352 791.277 Q218.542 791.277 215.463 786.694 Q212.408 782.088 212.408 773.361 Q212.408 764.611 215.463 760.027 Q218.542 755.421 224.352 755.421 Z" fill="#000000" fill-rule="nonzero" fill-opacity="1"></path><path clip-path="url(#clip150)" d="M144.422 448.85 L174.098 448.85 L174.098 452.786 L144.422 452.786 L144.422 448.85 Z" fill="#000000" fill-rule="nonzero" fill-opacity="1"></path><path clip-path="url(#clip150)" d="M184.237 431.119 L202.593 431.119 L202.593 435.054 L188.519 435.054 L188.519 443.526 Q189.538 443.179 190.556 443.017 Q191.575 442.832 192.593 442.832 Q198.38 442.832 201.76 446.003 Q205.139 449.175 205.139 454.591 Q205.139 460.17 201.667 463.272 Q198.195 466.35 191.875 466.35 Q189.7 466.35 187.431 465.98 Q185.186 465.61 182.778 464.869 L182.778 460.17 Q184.862 461.304 187.084 461.86 Q189.306 462.415 191.783 462.415 Q195.787 462.415 198.125 460.309 Q200.463 458.202 200.463 454.591 Q200.463 450.98 198.125 448.874 Q195.787 446.767 191.783 446.767 Q189.908 446.767 188.033 447.184 Q186.181 447.6 184.237 448.48 L184.237 431.119 Z" fill="#000000" fill-rule="nonzero" fill-opacity="1"></path><path clip-path="url(#clip150)" d="M224.352 434.198 Q220.741 434.198 218.912 437.763 Q217.107 441.304 217.107 448.434 Q217.107 455.54 218.912 459.105 Q220.741 462.647 224.352 462.647 Q227.986 462.647 229.792 459.105 Q231.621 455.54 231.621 448.434 Q231.621 441.304 229.792 437.763 Q227.986 434.198 224.352 434.198 M224.352 430.494 Q230.162 430.494 233.218 435.101 Q236.297 439.684 236.297 448.434 Q236.297 457.161 233.218 461.767 Q230.162 466.35 224.352 466.35 Q218.542 466.35 215.463 461.767 Q212.408 457.161 212.408 448.434 Q212.408 439.684 215.463 435.101 Q218.542 430.494 224.352 430.494 Z" fill="#000000" fill-rule="nonzero" fill-opacity="1"></path><path clip-path="url(#clip150)" d="M224.352 109.271 Q220.741 109.271 218.912 112.836 Q217.107 116.377 217.107 123.507 Q217.107 130.613 218.912 134.178 Q220.741 137.72 224.352 137.72 Q227.986 137.72 229.792 134.178 Q231.621 130.613 231.621 123.507 Q231.621 116.377 229.792 112.836 Q227.986 109.271 224.352 109.271 M224.352 105.567 Q230.162 105.567 233.218 110.174 Q236.297 114.757 236.297 123.507 Q236.297 132.234 233.218 136.84 Q230.162 141.423 224.352 141.423 Q218.542 141.423 215.463 136.84 Q212.408 132.234 212.408 123.507 Q212.408 114.757 215.463 110.174 Q218.542 105.567 224.352 105.567 Z" fill="#000000" fill-rule="nonzero" fill-opacity="1"></path><path clip-path="url(#clip150)" d="M28.3562 892.572 L28.3562 864.753 L33.7034 864.753 L59.3254 886.779 L59.3254 864.753 L64.0042 864.753 L64.0042 893.367 L58.657 893.367 L33.035 871.342 L33.035 892.572 L28.3562 892.572 Z" fill="#000000" fill-rule="nonzero" fill-opacity="1"></path><path clip-path="url(#clip150)" d="M14.479 835.63 L14.479 822.135 L19.0304 822.135 L19.0304 829.774 L68.0464 829.774 L68.0464 822.135 L72.5979 822.135 L72.5979 835.63 L14.479 835.63 Z" fill="#000000" fill-rule="nonzero" fill-opacity="1"></path><path clip-path="url(#clip150)" d="M14.479 789.161 L14.479 783.272 L43.7294 783.272 L28.3562 765.799 L28.3562 758.319 L45.0344 777.225 L64.0042 757.523 L64.0042 765.162 L46.5939 783.272 L64.0042 783.272 L64.0042 789.161 L14.479 789.161 Z" fill="#000000" fill-rule="nonzero" fill-opacity="1"></path><path clip-path="url(#clip150)" d="M35.1993 723.435 Q31.2526 721.239 29.3747 718.183 Q27.4968 715.128 27.4968 710.99 Q27.4968 705.42 31.4117 702.396 Q35.2948 699.372 42.4881 699.372 L64.0042 699.372 L64.0042 705.261 L42.679 705.261 Q37.5546 705.261 35.072 707.075 Q32.5894 708.889 32.5894 712.613 Q32.5894 717.165 35.6131 719.806 Q38.6368 722.448 43.8567 722.448 L64.0042 722.448 L64.0042 728.336 L42.679 728.336 Q37.5228 728.336 35.072 730.151 Q32.5894 731.965 32.5894 735.752 Q32.5894 740.24 35.6449 742.882 Q38.6686 745.524 43.8567 745.524 L64.0042 745.524 L64.0042 751.412 L28.3562 751.412 L28.3562 745.524 L33.8944 745.524 Q30.616 743.519 29.0564 740.718 Q27.4968 737.917 27.4968 734.065 Q27.4968 730.182 29.4702 727.477 Q31.4436 724.74 35.1993 723.435 Z" fill="#000000" fill-rule="nonzero" fill-opacity="1"></path><path clip-path="url(#clip150)" d="M14.479 653.285 L72.5979 653.285 L72.5979 666.78 L68.0464 666.78 L68.0464 659.173 L19.0304 659.173 L19.0304 666.78 L14.479 666.78 L14.479 653.285 Z" fill="#000000" fill-rule="nonzero" fill-opacity="1"></path><path clip-path="url(#clip150)" d="M928.075 12.096 L936.258 12.096 L936.258 72.576 L928.075 72.576 L928.075 12.096 Z" fill="#000000" fill-rule="nonzero" fill-opacity="1"></path><path clip-path="url(#clip150)" d="M989.932 45.1919 L989.932 72.576 L982.479 72.576 L982.479 45.4349 Q982.479 38.994 979.967 35.7938 Q977.456 32.5936 972.433 32.5936 Q966.397 32.5936 962.913 36.4419 Q959.429 40.2903 959.429 46.9338 L959.429 72.576 L951.935 72.576 L951.935 27.2059 L959.429 27.2059 L959.429 34.2544 Q962.103 30.163 965.708 28.1376 Q969.354 26.1121 974.093 26.1121 Q981.912 26.1121 985.922 30.9732 Q989.932 35.7938 989.932 45.1919 Z" fill="#000000" fill-rule="nonzero" fill-opacity="1"></path><path clip-path="url(#clip150)" d="M1004.8 27.2059 L1012.25 27.2059 L1012.25 72.576 L1004.8 72.576 L1004.8 27.2059 M1004.8 9.54393 L1012.25 9.54393 L1012.25 18.9825 L1004.8 18.9825 L1004.8 9.54393 Z" fill="#000000" fill-rule="nonzero" fill-opacity="1"></path><path clip-path="url(#clip150)" d="M1035.22 14.324 L1035.22 27.2059 L1050.57 27.2059 L1050.57 32.9987 L1035.22 32.9987 L1035.22 57.6282 Q1035.22 63.1779 1036.72 64.7578 Q1038.26 66.3376 1042.92 66.3376 L1050.57 66.3376 L1050.57 72.576 L1042.92 72.576 Q1034.29 72.576 1031.01 69.3758 Q1027.73 66.1351 1027.73 57.6282 L1027.73 32.9987 L1022.26 32.9987 L1022.26 27.2059 L1027.73 27.2059 L1027.73 14.324 L1035.22 14.324 Z" fill="#000000" fill-rule="nonzero" fill-opacity="1"></path><path clip-path="url(#clip150)" d="M1060.38 27.2059 L1067.83 27.2059 L1067.83 72.576 L1060.38 72.576 L1060.38 27.2059 M1060.38 9.54393 L1067.83 9.54393 L1067.83 18.9825 L1060.38 18.9825 L1060.38 9.54393 Z" fill="#000000" fill-rule="nonzero" fill-opacity="1"></path><path clip-path="url(#clip150)" d="M1104.05 49.7694 Q1095.01 49.7694 1091.53 51.8354 Q1088.05 53.9013 1088.05 58.8839 Q1088.05 62.8538 1090.64 65.2034 Q1093.27 67.5124 1097.77 67.5124 Q1103.97 67.5124 1107.69 63.1374 Q1111.46 58.7219 1111.46 51.4303 L1111.46 49.7694 L1104.05 49.7694 M1118.91 46.6907 L1118.91 72.576 L1111.46 72.576 L1111.46 65.6895 Q1108.91 69.8214 1105.1 71.8063 Q1101.29 73.7508 1095.78 73.7508 Q1088.82 73.7508 1084.68 69.8619 Q1080.59 65.9325 1080.59 59.3701 Q1080.59 51.7138 1085.7 47.825 Q1090.84 43.9361 1101.01 43.9361 L1111.46 43.9361 L1111.46 43.2069 Q1111.46 38.0623 1108.06 35.2672 Q1104.69 32.4315 1098.58 32.4315 Q1094.69 32.4315 1091 33.3632 Q1087.32 34.295 1083.91 36.1584 L1083.91 29.2718 Q1088 27.692 1091.85 26.9223 Q1095.7 26.1121 1099.35 26.1121 Q1109.19 26.1121 1114.05 31.2163 Q1118.91 36.3204 1118.91 46.6907 Z" fill="#000000" fill-rule="nonzero" fill-opacity="1"></path><path clip-path="url(#clip150)" d="M1134.27 9.54393 L1141.72 9.54393 L1141.72 72.576 L1134.27 72.576 L1134.27 9.54393 Z" fill="#000000" fill-rule="nonzero" fill-opacity="1"></path><path clip-path="url(#clip150)" d="M1175.63 12.096 L1226.79 12.096 L1226.79 18.9825 L1205.32 18.9825 L1205.32 72.576 L1197.1 72.576 L1197.1 18.9825 L1175.63 18.9825 L1175.63 12.096 Z" fill="#000000" fill-rule="nonzero" fill-opacity="1"></path><path clip-path="url(#clip150)" d="M1259.07 48.0275 L1259.07 51.6733 L1224.8 51.6733 Q1225.29 59.3701 1229.42 63.421 Q1233.59 67.4314 1241.01 67.4314 Q1245.3 67.4314 1249.31 66.3781 Q1253.36 65.3249 1257.33 63.2184 L1257.33 70.267 Q1253.32 71.9684 1249.11 72.8596 Q1244.9 73.7508 1240.56 73.7508 Q1229.71 73.7508 1223.35 67.4314 Q1217.03 61.1119 1217.03 50.3365 Q1217.03 39.1965 1223.02 32.6746 Q1229.06 26.1121 1239.27 26.1121 Q1248.42 26.1121 1253.73 32.0264 Q1259.07 37.9003 1259.07 48.0275 M1251.62 45.84 Q1251.54 39.7232 1248.18 36.0774 Q1244.86 32.4315 1239.35 32.4315 Q1233.11 32.4315 1229.34 35.9558 Q1225.61 39.4801 1225.05 45.8805 L1251.62 45.84 Z" fill="#000000" fill-rule="nonzero" fill-opacity="1"></path><path clip-path="url(#clip150)" d="M1306.63 35.9153 Q1309.43 30.8922 1313.32 28.5022 Q1317.21 26.1121 1322.47 26.1121 Q1329.56 26.1121 1333.41 31.0947 Q1337.26 36.0368 1337.26 45.1919 L1337.26 72.576 L1329.76 72.576 L1329.76 45.4349 Q1329.76 38.913 1327.45 35.7533 Q1325.14 32.5936 1320.41 32.5936 Q1314.61 32.5936 1311.25 36.4419 Q1307.89 40.2903 1307.89 46.9338 L1307.89 72.576 L1300.39 72.576 L1300.39 45.4349 Q1300.39 38.8725 1298.08 35.7533 Q1295.78 32.5936 1290.96 32.5936 Q1285.24 32.5936 1281.88 36.4824 Q1278.52 40.3308 1278.52 46.9338 L1278.52 72.576 L1271.02 72.576 L1271.02 27.2059 L1278.52 27.2059 L1278.52 34.2544 Q1281.07 30.082 1284.64 28.0971 Q1288.2 26.1121 1293.1 26.1121 Q1298.04 26.1121 1301.49 28.6237 Q1304.97 31.1352 1306.63 35.9153 Z" fill="#000000" fill-rule="nonzero" fill-opacity="1"></path><path clip-path="url(#clip150)" d="M1359.33 65.7705 L1359.33 89.8329 L1351.84 89.8329 L1351.84 27.2059 L1359.33 27.2059 L1359.33 34.0924 Q1361.68 30.0415 1365.25 28.0971 Q1368.85 26.1121 1373.84 26.1121 Q1382.1 26.1121 1387.25 32.6746 Q1392.43 39.2371 1392.43 49.9314 Q1392.43 60.6258 1387.25 67.1883 Q1382.1 73.7508 1373.84 73.7508 Q1368.85 73.7508 1365.25 71.8063 Q1361.68 69.8214 1359.33 65.7705 M1384.69 49.9314 Q1384.69 41.7081 1381.29 37.0496 Q1377.93 32.3505 1372.01 32.3505 Q1366.1 32.3505 1362.7 37.0496 Q1359.33 41.7081 1359.33 49.9314 Q1359.33 58.1548 1362.7 62.8538 Q1366.1 67.5124 1372.01 67.5124 Q1377.93 67.5124 1381.29 62.8538 Q1384.69 58.1548 1384.69 49.9314 Z" fill="#000000" fill-rule="nonzero" fill-opacity="1"></path><path clip-path="url(#clip150)" d="M1443.59 48.0275 L1443.59 51.6733 L1409.32 51.6733 Q1409.81 59.3701 1413.94 63.421 Q1418.11 67.4314 1425.53 67.4314 Q1429.82 67.4314 1433.83 66.3781 Q1437.88 65.3249 1441.85 63.2184 L1441.85 70.267 Q1437.84 71.9684 1433.63 72.8596 Q1429.42 73.7508 1425.08 73.7508 Q1414.22 73.7508 1407.86 67.4314 Q1401.54 61.1119 1401.54 50.3365 Q1401.54 39.1965 1407.54 32.6746 Q1413.58 26.1121 1423.78 26.1121 Q1432.94 26.1121 1438.25 32.0264 Q1443.59 37.9003 1443.59 48.0275 M1436.14 45.84 Q1436.06 39.7232 1432.7 36.0774 Q1429.37 32.4315 1423.87 32.4315 Q1417.63 32.4315 1413.86 35.9558 Q1410.13 39.4801 1409.57 45.8805 L1436.14 45.84 Z" fill="#000000" fill-rule="nonzero" fill-opacity="1"></path><path clip-path="url(#clip150)" d="M1482.12 34.1734 Q1480.86 33.4443 1479.36 33.1202 Q1477.9 32.7556 1476.12 32.7556 Q1469.8 32.7556 1466.4 36.8875 Q1463.04 40.9789 1463.04 48.6757 L1463.04 72.576 L1455.54 72.576 L1455.54 27.2059 L1463.04 27.2059 L1463.04 34.2544 Q1465.39 30.1225 1469.15 28.1376 Q1472.92 26.1121 1478.31 26.1121 Q1479.08 26.1121 1480.01 26.2337 Q1480.94 26.3147 1482.08 26.5172 L1482.12 34.1734 Z" fill="#000000" fill-rule="nonzero" fill-opacity="1"></path><path clip-path="url(#clip150)" d="M1510.55 49.7694 Q1501.52 49.7694 1498.04 51.8354 Q1494.55 53.9013 1494.55 58.8839 Q1494.55 62.8538 1497.15 65.2034 Q1499.78 67.5124 1504.28 67.5124 Q1510.47 67.5124 1514.2 63.1374 Q1517.97 58.7219 1517.97 51.4303 L1517.97 49.7694 L1510.55 49.7694 M1525.42 46.6907 L1525.42 72.576 L1517.97 72.576 L1517.97 65.6895 Q1515.42 69.8214 1511.61 71.8063 Q1507.8 73.7508 1502.29 73.7508 Q1495.32 73.7508 1491.19 69.8619 Q1487.1 65.9325 1487.1 59.3701 Q1487.1 51.7138 1492.2 47.825 Q1497.35 43.9361 1507.52 43.9361 L1517.97 43.9361 L1517.97 43.2069 Q1517.97 38.0623 1514.57 35.2672 Q1511.2 32.4315 1505.09 32.4315 Q1501.2 32.4315 1497.51 33.3632 Q1493.82 34.295 1490.42 36.1584 L1490.42 29.2718 Q1494.51 27.692 1498.36 26.9223 Q1502.21 26.1121 1505.86 26.1121 Q1515.7 26.1121 1520.56 31.2163 Q1525.42 36.3204 1525.42 46.6907 Z" fill="#000000" fill-rule="nonzero" fill-opacity="1"></path><path clip-path="url(#clip150)" d="M1548.15 14.324 L1548.15 27.2059 L1563.5 27.2059 L1563.5 32.9987 L1548.15 32.9987 L1548.15 57.6282 Q1548.15 63.1779 1549.65 64.7578 Q1551.19 66.3376 1555.84 66.3376 L1563.5 66.3376 L1563.5 72.576 L1555.84 72.576 Q1547.22 72.576 1543.93 69.3758 Q1540.65 66.1351 1540.65 57.6282 L1540.65 32.9987 L1535.18 32.9987 L1535.18 27.2059 L1540.65 27.2059 L1540.65 14.324 L1548.15 14.324 Z" fill="#000000" fill-rule="nonzero" fill-opacity="1"></path><path clip-path="url(#clip150)" d="M1572.53 54.671 L1572.53 27.2059 L1579.99 27.2059 L1579.99 54.3874 Q1579.99 60.8284 1582.5 64.0691 Q1585.01 67.2693 1590.03 67.2693 Q1596.07 67.2693 1599.55 63.421 Q1603.08 59.5726 1603.08 52.9291 L1603.08 27.2059 L1610.53 27.2059 L1610.53 72.576 L1603.08 72.576 L1603.08 65.6084 Q1600.36 69.7404 1596.76 71.7658 Q1593.19 73.7508 1588.45 73.7508 Q1580.64 73.7508 1576.58 68.8897 Q1572.53 64.0286 1572.53 54.671 M1591.29 26.1121 L1591.29 26.1121 Z" fill="#000000" fill-rule="nonzero" fill-opacity="1"></path><path clip-path="url(#clip150)" d="M1652.17 34.1734 Q1650.92 33.4443 1649.42 33.1202 Q1647.96 32.7556 1646.18 32.7556 Q1639.86 32.7556 1636.46 36.8875 Q1633.09 40.9789 1633.09 48.6757 L1633.09 72.576 L1625.6 72.576 L1625.6 27.2059 L1633.09 27.2059 L1633.09 34.2544 Q1635.44 30.1225 1639.21 28.1376 Q1642.98 26.1121 1648.37 26.1121 Q1649.14 26.1121 1650.07 26.2337 Q1651 26.3147 1652.13 26.5172 L1652.17 34.1734 Z" fill="#000000" fill-rule="nonzero" fill-opacity="1"></path><path clip-path="url(#clip150)" d="M1696.98 48.0275 L1696.98 51.6733 L1662.71 51.6733 Q1663.19 59.3701 1667.32 63.421 Q1671.5 67.4314 1678.91 67.4314 Q1683.2 67.4314 1687.21 66.3781 Q1691.27 65.3249 1695.24 63.2184 L1695.24 70.267 Q1691.23 71.9684 1687.01 72.8596 Q1682.8 73.7508 1678.46 73.7508 Q1667.61 73.7508 1661.25 67.4314 Q1654.93 61.1119 1654.93 50.3365 Q1654.93 39.1965 1660.92 32.6746 Q1666.96 26.1121 1677.17 26.1121 Q1686.32 26.1121 1691.63 32.0264 Q1696.98 37.9003 1696.98 48.0275 M1689.52 45.84 Q1689.44 39.7232 1686.08 36.0774 Q1682.76 32.4315 1677.25 32.4315 Q1671.01 32.4315 1667.24 35.9558 Q1663.52 39.4801 1662.95 45.8805 L1689.52 45.84 Z" fill="#000000" fill-rule="nonzero" fill-opacity="1"></path><polyline clip-path="url(#clip152)" style="stroke:#009af9; stroke-linecap:round; stroke-linejoin:round; stroke-width:4; stroke-opacity:1; fill:none" points="2352.39,1419.93 2351.65,1413.43 2350.92,1406.93 2350.18,1400.43 2349.45,1393.94 2348.71,1387.44 2347.98,1380.94 2347.24,1374.44 2346.51,1367.94 2345.77,1361.44 2345.04,1354.95 2344.3,1348.45 2343.57,1341.95 2342.83,1335.45 2342.1,1328.95 2341.36,1322.45 2340.63,1315.95 2339.89,1309.46 2339.16,1302.96 2338.42,1296.46 2337.69,1289.96 2336.95,1283.46 2336.22,1276.96 2335.48,1270.46 2334.74,1263.97 2334.01,1257.47 2333.27,1250.97 2332.54,1244.47 2331.8,1237.97 2331.07,1231.47 2330.33,1224.97 2329.6,1218.48 2328.86,1211.98 2328.13,1205.48 2327.39,1198.98 2326.66,1192.48 2325.92,1185.98 2325.19,1179.48 2324.45,1172.99 2323.72,1166.49 2322.98,1159.99 2322.25,1153.49 2321.51,1146.99 2320.78,1140.49 2320.04,1133.99 2319.31,1127.5 2318.57,1121 2317.84,1114.5 2317.1,1108 2316.37,1101.5 2315.63,1095 2314.9,1088.51 2314.16,1082.01 2313.43,1075.51 2312.69,1069.01 2311.96,1062.51 2311.22,1056.01 2310.49,1049.51 2309.75,1043.02 2309.01,1036.52 2308.28,1030.02 2307.54,1023.52 2306.81,1017.02 2306.07,1010.52 2305.34,1004.02 2304.6,997.526 2303.87,991.027 2303.13,984.528 2302.4,978.03 2301.66,971.531 2300.93,965.033 2300.19,958.534 2299.46,952.036 2298.72,945.537 2297.99,939.039 2297.25,932.54 2296.52,926.042 2295.78,919.543 2295.05,913.045 2294.31,906.546 2293.58,900.047 2292.84,893.549 2292.11,887.05 2291.37,880.552 2290.64,874.053 2289.9,867.555 2289.17,861.056 2288.43,854.558 2287.7,848.059 2286.96,841.561 2286.23,835.062 2285.49,828.564 2284.76,822.065 2284.02,815.566 2283.28,809.068 2282.55,802.569 2281.81,796.071 2281.08,789.572 2280.34,783.074 2279.61,776.575 2278.87,770.077 2278.14,763.578 2277.4,757.08 2276.67,750.581 2275.93,744.083 2275.2,737.584 2274.46,731.085 2273.73,724.587 2272.99,718.088 2272.26,711.59 2271.52,705.091 2270.79,698.593 2270.05,692.094 2269.32,685.596 2268.58,679.097 2267.85,672.599 2267.11,666.1 2266.38,659.602 2265.64,653.103 2264.91,646.604 2264.17,640.106 2263.44,633.607 2262.7,627.109 2261.97,620.61 2261.23,614.112 2260.5,607.613 2259.76,601.115 2259.02,594.616 2258.29,588.118 2257.55,581.619 2256.82,575.121 2256.08,568.622 2255.35,562.123 2254.61,555.625 2253.88,549.126 2253.14,542.628 2252.41,536.129 2251.67,529.631 2250.94,523.132 2250.2,516.634 2249.47,510.135 2248.73,503.637 2248,497.138 2247.26,490.64 2246.53,484.141 2245.79,477.642 2245.06,471.144 2244.32,464.645 2243.59,458.147 2242.85,451.648 2242.12,445.15 2241.38,438.651 2240.65,432.153 2239.91,425.654 2239.18,419.156 2238.44,412.657 2237.71,406.159 2236.97,399.66 2236.24,393.161 2235.5,386.663 2234.77,380.164 2234.03,373.666 2233.29,367.167 2232.56,360.669 2231.82,354.17 2231.09,347.672 2230.35,341.173 2229.62,334.675 2228.88,328.176 2228.15,321.678 2227.41,315.179 2226.68,308.68 2225.94,302.182 2225.21,295.683 2224.47,289.185 2223.74,282.686 2223,276.188 2222.27,269.689 2221.53,263.191 2220.8,256.692 2220.06,250.194 2219.33,243.695 2218.59,237.197 2217.86,230.698 2217.12,224.199 2216.39,217.701 2215.65,211.202 2214.92,204.704 2214.18,198.205 2213.45,191.707 2212.71,185.208 2211.98,178.71 2211.24,172.211 2210.51,165.713 2209.77,159.214 2209.04,152.716 2208.3,146.217 2207.56,139.718 2206.83,133.22 2206.09,126.721 "></polyline>
</svg>