<svg xmlns="http://www.w3.org/2000/svg" xmlns:xlink="http://www.w3.org/1999/xlink" width="600" height="400" viewBox="0 0 2400 1600">
<defs>
  <clipPath id="clip110">
    <rect x="0" y="0" width="2400" height="1600"></rect>
  </clipPath>
</defs>
<path clip-path="url(#clip110)" d="M0 1600 L2400 1600 L2400 0 L0 0  Z" fill="#ffffff" fill-rule="evenodd" fill-opacity="1"></path>
<defs>
  <clipPath id="clip111">
    <rect x="480" y="0" width="1681" height="1600"></rect>
  </clipPath>
</defs>
<path clip-path="url(#clip110)" d="M272.297 1423.18 L1152.76 1423.18 L1152.76 123.472 L272.297 123.472  Z" fill="#ffffff" fill-rule="evenodd" fill-opacity="1"></path>
<defs>
  <clipPath id="clip112">
    <rect x="272" y="123" width="881" height="1301"></rect>
  </clipPath>
</defs>
<polyline clip-path="url(#clip112)" style="stroke:#000000; stroke-linecap:round; stroke-linejoin:round; stroke-width:2; stroke-opacity:0.1; fill:none" points="413.45,1423.18 413.45,123.472 "></polyline>
<polyline clip-path="url(#clip112)" style="stroke:#000000; stroke-linecap:round; stroke-linejoin:round; stroke-width:2; stroke-opacity:0.1; fill:none" points="569.008,1423.18 569.008,123.472 "></polyline>
<polyline clip-path="url(#clip112)" style="stroke:#000000; stroke-linecap:round; stroke-linejoin:round; stroke-width:2; stroke-opacity:0.1; fill:none" points="724.566,1423.18 724.566,123.472 "></polyline>
<polyline clip-path="url(#clip112)" style="stroke:#000000; stroke-linecap:round; stroke-linejoin:round; stroke-width:2; stroke-opacity:0.1; fill:none" points="880.125,1423.18 880.125,123.472 "></polyline>
<polyline clip-path="url(#clip112)" style="stroke:#000000; stroke-linecap:round; stroke-linejoin:round; stroke-width:2; stroke-opacity:0.1; fill:none" points="1035.68,1423.18 1035.68,123.472 "></polyline>
<polyline clip-path="url(#clip112)" style="stroke:#000000; stroke-linecap:round; stroke-linejoin:round; stroke-width:2; stroke-opacity:0.1; fill:none" points="272.297,1423.18 1152.76,1423.18 "></polyline>
<polyline clip-path="url(#clip112)" style="stroke:#000000; stroke-linecap:round; stroke-linejoin:round; stroke-width:2; stroke-opacity:0.1; fill:none" points="272.297,1098.25 1152.76,1098.25 "></polyline>
<polyline clip-path="url(#clip112)" style="stroke:#000000; stroke-linecap:round; stroke-linejoin:round; stroke-width:2; stroke-opacity:0.1; fill:none" points="272.297,773.326 1152.76,773.326 "></polyline>
<polyline clip-path="url(#clip112)" style="stroke:#000000; stroke-linecap:round; stroke-linejoin:round; stroke-width:2; stroke-opacity:0.1; fill:none" points="272.297,448.399 1152.76,448.399 "></polyline>
<polyline clip-path="url(#clip112)" style="stroke:#000000; stroke-linecap:round; stroke-linejoin:round; stroke-width:2; stroke-opacity:0.1; fill:none" points="272.297,123.472 1152.76,123.472 "></polyline>
<polyline clip-path="url(#clip110)" style="stroke:#000000; stroke-linecap:round; stroke-linejoin:round; stroke-width:4; stroke-opacity:1; fill:none" points="272.297,1423.18 1152.76,1423.18 "></polyline>
<polyline clip-path="url(#clip110)" style="stroke:#000000; stroke-linecap:round; stroke-linejoin:round; stroke-width:4; stroke-opacity:1; fill:none" points="413.45,1423.18 413.45,1404.28 "></polyline>
<polyline clip-path="url(#clip110)" style="stroke:#000000; stroke-linecap:round; stroke-linejoin:round; stroke-width:4; stroke-opacity:1; fill:none" points="569.008,1423.18 569.008,1404.28 "></polyline>
<polyline clip-path="url(#clip110)" style="stroke:#000000; stroke-linecap:round; stroke-linejoin:round; stroke-width:4; stroke-opacity:1; fill:none" points="724.566,1423.18 724.566,1404.28 "></polyline>
<polyline clip-path="url(#clip110)" style="stroke:#000000; stroke-linecap:round; stroke-linejoin:round; stroke-width:4; stroke-opacity:1; fill:none" points="880.125,1423.18 880.125,1404.28 "></polyline>
<polyline clip-path="url(#clip110)" style="stroke:#000000; stroke-linecap:round; stroke-linejoin:round; stroke-width:4; stroke-opacity:1; fill:none" points="1035.68,1423.18 1035.68,1404.28 "></polyline>
<path clip-path="url(#clip110)" d="M373.068 1451.02 L391.425 1451.02 L391.425 1454.96 L377.351 1454.96 L377.351 1463.43 Q378.369 1463.08 379.388 1462.92 Q380.406 1462.73 381.425 1462.73 Q387.212 1462.73 390.591 1465.9 Q393.971 1469.08 393.971 1474.49 Q393.971 1480.07 390.499 1483.17 Q387.027 1486.25 380.707 1486.25 Q378.531 1486.25 376.263 1485.88 Q374.017 1485.51 371.61 1484.77 L371.61 1480.07 Q373.693 1481.2 375.916 1481.76 Q378.138 1482.32 380.615 1482.32 Q384.619 1482.32 386.957 1480.21 Q389.295 1478.1 389.295 1474.49 Q389.295 1470.88 386.957 1468.77 Q384.619 1466.67 380.615 1466.67 Q378.74 1466.67 376.865 1467.08 Q375.013 1467.5 373.068 1468.38 L373.068 1451.02 Z" fill="#000000" fill-rule="nonzero" fill-opacity="1"></path><path clip-path="url(#clip110)" d="M413.184 1454.1 Q409.573 1454.1 407.744 1457.66 Q405.939 1461.2 405.939 1468.33 Q405.939 1475.44 407.744 1479.01 Q409.573 1482.55 413.184 1482.55 Q416.818 1482.55 418.624 1479.01 Q420.452 1475.44 420.452 1468.33 Q420.452 1461.2 418.624 1457.66 Q416.818 1454.1 413.184 1454.1 M413.184 1450.39 Q418.994 1450.39 422.05 1455 Q425.128 1459.58 425.128 1468.33 Q425.128 1477.06 422.05 1481.67 Q418.994 1486.25 413.184 1486.25 Q407.374 1486.25 404.295 1481.67 Q401.239 1477.06 401.239 1468.33 Q401.239 1459.58 404.295 1455 Q407.374 1450.39 413.184 1450.39 Z" fill="#000000" fill-rule="nonzero" fill-opacity="1"></path><path clip-path="url(#clip110)" d="M443.346 1454.1 Q439.735 1454.1 437.906 1457.66 Q436.1 1461.2 436.1 1468.33 Q436.1 1475.44 437.906 1479.01 Q439.735 1482.55 443.346 1482.55 Q446.98 1482.55 448.786 1479.01 Q450.614 1475.44 450.614 1468.33 Q450.614 1461.2 448.786 1457.66 Q446.98 1454.1 443.346 1454.1 M443.346 1450.39 Q449.156 1450.39 452.211 1455 Q455.29 1459.58 455.29 1468.33 Q455.29 1477.06 452.211 1481.67 Q449.156 1486.25 443.346 1486.25 Q437.536 1486.25 434.457 1481.67 Q431.401 1477.06 431.401 1468.33 Q431.401 1459.58 434.457 1455 Q437.536 1450.39 443.346 1450.39 Z" fill="#000000" fill-rule="nonzero" fill-opacity="1"></path><path clip-path="url(#clip110)" d="M527.284 1451.02 L549.506 1451.02 L549.506 1453.01 L536.96 1485.58 L532.076 1485.58 L543.881 1454.96 L527.284 1454.96 L527.284 1451.02 Z" fill="#000000" fill-rule="nonzero" fill-opacity="1"></path><path clip-path="url(#clip110)" d="M558.673 1451.02 L577.029 1451.02 L577.029 1454.96 L562.955 1454.96 L562.955 1463.43 Q563.974 1463.08 564.992 1462.92 Q566.011 1462.73 567.029 1462.73 Q572.816 1462.73 576.196 1465.9 Q579.575 1469.08 579.575 1474.49 Q579.575 1480.07 576.103 1483.17 Q572.631 1486.25 566.311 1486.25 Q564.136 1486.25 561.867 1485.88 Q559.622 1485.51 557.214 1484.77 L557.214 1480.07 Q559.298 1481.2 561.52 1481.76 Q563.742 1482.32 566.219 1482.32 Q570.224 1482.32 572.561 1480.21 Q574.899 1478.1 574.899 1474.49 Q574.899 1470.88 572.561 1468.77 Q570.224 1466.67 566.219 1466.67 Q564.344 1466.67 562.469 1467.08 Q560.617 1467.5 558.673 1468.38 L558.673 1451.02 Z" fill="#000000" fill-rule="nonzero" fill-opacity="1"></path><path clip-path="url(#clip110)" d="M598.788 1454.1 Q595.177 1454.1 593.348 1457.66 Q591.543 1461.2 591.543 1468.33 Q591.543 1475.44 593.348 1479.01 Q595.177 1482.55 598.788 1482.55 Q602.422 1482.55 604.228 1479.01 Q606.057 1475.44 606.057 1468.33 Q606.057 1461.2 604.228 1457.66 Q602.422 1454.1 598.788 1454.1 M598.788 1450.39 Q604.598 1450.39 607.654 1455 Q610.733 1459.58 610.733 1468.33 Q610.733 1477.06 607.654 1481.67 Q604.598 1486.25 598.788 1486.25 Q592.978 1486.25 589.899 1481.67 Q586.844 1477.06 586.844 1468.33 Q586.844 1459.58 589.899 1455 Q592.978 1450.39 598.788 1450.39 Z" fill="#000000" fill-rule="nonzero" fill-opacity="1"></path><path clip-path="url(#clip110)" d="M669.092 1481.64 L676.731 1481.64 L676.731 1455.28 L668.421 1456.95 L668.421 1452.69 L676.685 1451.02 L681.361 1451.02 L681.361 1481.64 L688.999 1481.64 L688.999 1485.58 L669.092 1485.58 L669.092 1481.64 Z" fill="#000000" fill-rule="nonzero" fill-opacity="1"></path><path clip-path="url(#clip110)" d="M708.444 1454.1 Q704.833 1454.1 703.004 1457.66 Q701.198 1461.2 701.198 1468.33 Q701.198 1475.44 703.004 1479.01 Q704.833 1482.55 708.444 1482.55 Q712.078 1482.55 713.884 1479.01 Q715.712 1475.44 715.712 1468.33 Q715.712 1461.2 713.884 1457.66 Q712.078 1454.1 708.444 1454.1 M708.444 1450.39 Q714.254 1450.39 717.31 1455 Q720.388 1459.58 720.388 1468.33 Q720.388 1477.06 717.31 1481.67 Q714.254 1486.25 708.444 1486.25 Q702.634 1486.25 699.555 1481.67 Q696.499 1477.06 696.499 1468.33 Q696.499 1459.58 699.555 1455 Q702.634 1450.39 708.444 1450.39 Z" fill="#000000" fill-rule="nonzero" fill-opacity="1"></path><path clip-path="url(#clip110)" d="M738.606 1454.1 Q734.995 1454.1 733.166 1457.66 Q731.36 1461.2 731.36 1468.33 Q731.36 1475.44 733.166 1479.01 Q734.995 1482.55 738.606 1482.55 Q742.24 1482.55 744.045 1479.01 Q745.874 1475.44 745.874 1468.33 Q745.874 1461.2 744.045 1457.66 Q742.24 1454.1 738.606 1454.1 M738.606 1450.39 Q744.416 1450.39 747.471 1455 Q750.55 1459.58 750.55 1468.33 Q750.55 1477.06 747.471 1481.67 Q744.416 1486.25 738.606 1486.25 Q732.796 1486.25 729.717 1481.67 Q726.661 1477.06 726.661 1468.33 Q726.661 1459.58 729.717 1455 Q732.796 1450.39 738.606 1450.39 Z" fill="#000000" fill-rule="nonzero" fill-opacity="1"></path><path clip-path="url(#clip110)" d="M768.768 1454.1 Q765.156 1454.1 763.328 1457.66 Q761.522 1461.2 761.522 1468.33 Q761.522 1475.44 763.328 1479.01 Q765.156 1482.55 768.768 1482.55 Q772.402 1482.55 774.207 1479.01 Q776.036 1475.44 776.036 1468.33 Q776.036 1461.2 774.207 1457.66 Q772.402 1454.1 768.768 1454.1 M768.768 1450.39 Q774.578 1450.39 777.633 1455 Q780.712 1459.58 780.712 1468.33 Q780.712 1477.06 777.633 1481.67 Q774.578 1486.25 768.768 1486.25 Q762.957 1486.25 759.879 1481.67 Q756.823 1477.06 756.823 1468.33 Q756.823 1459.58 759.879 1455 Q762.957 1450.39 768.768 1450.39 Z" fill="#000000" fill-rule="nonzero" fill-opacity="1"></path><path clip-path="url(#clip110)" d="M824.65 1481.64 L832.289 1481.64 L832.289 1455.28 L823.979 1456.95 L823.979 1452.69 L832.243 1451.02 L836.919 1451.02 L836.919 1481.64 L844.558 1481.64 L844.558 1485.58 L824.65 1485.58 L824.65 1481.64 Z" fill="#000000" fill-rule="nonzero" fill-opacity="1"></path><path clip-path="url(#clip110)" d="M858.03 1481.64 L874.349 1481.64 L874.349 1485.58 L852.405 1485.58 L852.405 1481.64 Q855.067 1478.89 859.65 1474.26 Q864.257 1469.61 865.437 1468.27 Q867.683 1465.74 868.562 1464.01 Q869.465 1462.25 869.465 1460.56 Q869.465 1457.8 867.521 1456.07 Q865.599 1454.33 862.497 1454.33 Q860.298 1454.33 857.845 1455.09 Q855.414 1455.86 852.636 1457.41 L852.636 1452.69 Q855.46 1451.55 857.914 1450.97 Q860.368 1450.39 862.405 1450.39 Q867.775 1450.39 870.97 1453.08 Q874.164 1455.77 874.164 1460.26 Q874.164 1462.39 873.354 1464.31 Q872.567 1466.2 870.46 1468.8 Q869.882 1469.47 866.78 1472.69 Q863.678 1475.88 858.03 1481.64 Z" fill="#000000" fill-rule="nonzero" fill-opacity="1"></path><path clip-path="url(#clip110)" d="M884.21 1451.02 L902.567 1451.02 L902.567 1454.96 L888.493 1454.96 L888.493 1463.43 Q889.511 1463.08 890.53 1462.92 Q891.548 1462.73 892.567 1462.73 Q898.354 1462.73 901.733 1465.9 Q905.113 1469.08 905.113 1474.49 Q905.113 1480.07 901.641 1483.17 Q898.169 1486.25 891.849 1486.25 Q889.673 1486.25 887.405 1485.88 Q885.159 1485.51 882.752 1484.77 L882.752 1480.07 Q884.835 1481.2 887.057 1481.76 Q889.28 1482.32 891.757 1482.32 Q895.761 1482.32 898.099 1480.21 Q900.437 1478.1 900.437 1474.49 Q900.437 1470.88 898.099 1468.77 Q895.761 1466.67 891.757 1466.67 Q889.882 1466.67 888.007 1467.08 Q886.155 1467.5 884.21 1468.38 L884.21 1451.02 Z" fill="#000000" fill-rule="nonzero" fill-opacity="1"></path><path clip-path="url(#clip110)" d="M924.326 1454.1 Q920.715 1454.1 918.886 1457.66 Q917.08 1461.2 917.08 1468.33 Q917.08 1475.44 918.886 1479.01 Q920.715 1482.55 924.326 1482.55 Q927.96 1482.55 929.766 1479.01 Q931.594 1475.44 931.594 1468.33 Q931.594 1461.2 929.766 1457.66 Q927.96 1454.1 924.326 1454.1 M924.326 1450.39 Q930.136 1450.39 933.191 1455 Q936.27 1459.58 936.27 1468.33 Q936.27 1477.06 933.191 1481.67 Q930.136 1486.25 924.326 1486.25 Q918.516 1486.25 915.437 1481.67 Q912.381 1477.06 912.381 1468.33 Q912.381 1459.58 915.437 1455 Q918.516 1450.39 924.326 1450.39 Z" fill="#000000" fill-rule="nonzero" fill-opacity="1"></path><path clip-path="url(#clip110)" d="M980.209 1481.64 L987.847 1481.64 L987.847 1455.28 L979.537 1456.95 L979.537 1452.69 L987.801 1451.02 L992.477 1451.02 L992.477 1481.64 L1000.12 1481.64 L1000.12 1485.58 L980.209 1485.58 L980.209 1481.64 Z" fill="#000000" fill-rule="nonzero" fill-opacity="1"></path><path clip-path="url(#clip110)" d="M1009.61 1451.02 L1027.96 1451.02 L1027.96 1454.96 L1013.89 1454.96 L1013.89 1463.43 Q1014.91 1463.08 1015.93 1462.92 Q1016.94 1462.73 1017.96 1462.73 Q1023.75 1462.73 1027.13 1465.9 Q1030.51 1469.08 1030.51 1474.49 Q1030.51 1480.07 1027.04 1483.17 Q1023.56 1486.25 1017.25 1486.25 Q1015.07 1486.25 1012.8 1485.88 Q1010.56 1485.51 1008.15 1484.77 L1008.15 1480.07 Q1010.23 1481.2 1012.45 1481.76 Q1014.68 1482.32 1017.15 1482.32 Q1021.16 1482.32 1023.5 1480.21 Q1025.83 1478.1 1025.83 1474.49 Q1025.83 1470.88 1023.5 1468.77 Q1021.16 1466.67 1017.15 1466.67 Q1015.28 1466.67 1013.4 1467.08 Q1011.55 1467.5 1009.61 1468.38 L1009.61 1451.02 Z" fill="#000000" fill-rule="nonzero" fill-opacity="1"></path><path clip-path="url(#clip110)" d="M1049.72 1454.1 Q1046.11 1454.1 1044.28 1457.66 Q1042.48 1461.2 1042.48 1468.33 Q1042.48 1475.44 1044.28 1479.01 Q1046.11 1482.55 1049.72 1482.55 Q1053.36 1482.55 1055.16 1479.01 Q1056.99 1475.44 1056.99 1468.33 Q1056.99 1461.2 1055.16 1457.66 Q1053.36 1454.1 1049.72 1454.1 M1049.72 1450.39 Q1055.53 1450.39 1058.59 1455 Q1061.67 1459.58 1061.67 1468.33 Q1061.67 1477.06 1058.59 1481.67 Q1055.53 1486.25 1049.72 1486.25 Q1043.91 1486.25 1040.83 1481.67 Q1037.78 1477.06 1037.78 1468.33 Q1037.78 1459.58 1040.83 1455 Q1043.91 1450.39 1049.72 1450.39 Z" fill="#000000" fill-rule="nonzero" fill-opacity="1"></path><path clip-path="url(#clip110)" d="M1079.88 1454.1 Q1076.27 1454.1 1074.44 1457.66 Q1072.64 1461.2 1072.64 1468.33 Q1072.64 1475.44 1074.44 1479.01 Q1076.27 1482.55 1079.88 1482.55 Q1083.52 1482.55 1085.32 1479.01 Q1087.15 1475.44 1087.15 1468.33 Q1087.15 1461.2 1085.32 1457.66 Q1083.52 1454.1 1079.88 1454.1 M1079.88 1450.39 Q1085.69 1450.39 1088.75 1455 Q1091.83 1459.58 1091.83 1468.33 Q1091.83 1477.06 1088.75 1481.67 Q1085.69 1486.25 1079.88 1486.25 Q1074.07 1486.25 1071 1481.67 Q1067.94 1477.06 1067.94 1468.33 Q1067.94 1459.58 1071 1455 Q1074.07 1450.39 1079.88 1450.39 Z" fill="#000000" fill-rule="nonzero" fill-opacity="1"></path><path clip-path="url(#clip110)" d="M617.438 1520.52 L657.638 1520.52 L657.638 1525.93 L640.769 1525.93 L640.769 1568.04 L634.308 1568.04 L634.308 1525.93 L617.438 1525.93 L617.438 1520.52 Z" fill="#000000" fill-rule="nonzero" fill-opacity="1"></path><path clip-path="url(#clip110)" d="M683.769 1518.52 L697.264 1518.52 L697.264 1523.07 L689.626 1523.07 L689.626 1572.09 L697.264 1572.09 L697.264 1576.64 L683.769 1576.64 L683.769 1518.52 Z" fill="#000000" fill-rule="nonzero" fill-opacity="1"></path><path clip-path="url(#clip110)" d="M730.716 1520.52 L737.146 1520.52 L737.146 1540.61 L758.471 1520.52 L766.746 1520.52 L743.161 1542.68 L768.433 1568.04 L759.967 1568.04 L737.146 1545.16 L737.146 1568.04 L730.716 1568.04 L730.716 1520.52 Z" fill="#000000" fill-rule="nonzero" fill-opacity="1"></path><path clip-path="url(#clip110)" d="M807.614 1518.52 L807.614 1576.64 L794.119 1576.64 L794.119 1572.09 L801.726 1572.09 L801.726 1523.07 L794.119 1523.07 L794.119 1518.52 L807.614 1518.52 Z" fill="#000000" fill-rule="nonzero" fill-opacity="1"></path><polyline clip-path="url(#clip110)" style="stroke:#000000; stroke-linecap:round; stroke-linejoin:round; stroke-width:4; stroke-opacity:1; fill:none" points="272.297,1423.18 272.297,123.472 "></polyline>
<polyline clip-path="url(#clip110)" style="stroke:#000000; stroke-linecap:round; stroke-linejoin:round; stroke-width:4; stroke-opacity:1; fill:none" points="272.297,1423.18 291.194,1423.18 "></polyline>
<polyline clip-path="url(#clip110)" style="stroke:#000000; stroke-linecap:round; stroke-linejoin:round; stroke-width:4; stroke-opacity:1; fill:none" points="272.297,1098.25 291.194,1098.25 "></polyline>
<polyline clip-path="url(#clip110)" style="stroke:#000000; stroke-linecap:round; stroke-linejoin:round; stroke-width:4; stroke-opacity:1; fill:none" points="272.297,773.326 291.194,773.326 "></polyline>
<polyline clip-path="url(#clip110)" style="stroke:#000000; stroke-linecap:round; stroke-linejoin:round; stroke-width:4; stroke-opacity:1; fill:none" points="272.297,448.399 291.194,448.399 "></polyline>
<polyline clip-path="url(#clip110)" style="stroke:#000000; stroke-linecap:round; stroke-linejoin:round; stroke-width:4; stroke-opacity:1; fill:none" points="272.297,123.472 291.194,123.472 "></polyline>
<path clip-path="url(#clip110)" d="M114.26 1423.63 L143.936 1423.63 L143.936 1427.57 L114.26 1427.57 L114.26 1423.63 Z" fill="#000000" fill-rule="nonzero" fill-opacity="1"></path><path clip-path="url(#clip110)" d="M158.056 1436.52 L174.376 1436.52 L174.376 1440.46 L152.431 1440.46 L152.431 1436.52 Q155.093 1433.77 159.677 1429.14 Q164.283 1424.49 165.464 1423.15 Q167.709 1420.62 168.589 1418.89 Q169.491 1417.13 169.491 1415.44 Q169.491 1412.68 167.547 1410.95 Q165.626 1409.21 162.524 1409.21 Q160.325 1409.21 157.871 1409.97 Q155.44 1410.74 152.663 1412.29 L152.663 1407.57 Q155.487 1406.43 157.94 1405.85 Q160.394 1405.27 162.431 1405.27 Q167.802 1405.27 170.996 1407.96 Q174.19 1410.65 174.19 1415.14 Q174.19 1417.27 173.38 1419.19 Q172.593 1421.08 170.487 1423.68 Q169.908 1424.35 166.806 1427.57 Q163.704 1430.76 158.056 1436.52 Z" fill="#000000" fill-rule="nonzero" fill-opacity="1"></path><path clip-path="url(#clip110)" d="M194.19 1408.98 Q190.579 1408.98 188.75 1412.54 Q186.945 1416.08 186.945 1423.21 Q186.945 1430.32 188.75 1433.89 Q190.579 1437.43 194.19 1437.43 Q197.825 1437.43 199.63 1433.89 Q201.459 1430.32 201.459 1423.21 Q201.459 1416.08 199.63 1412.54 Q197.825 1408.98 194.19 1408.98 M194.19 1405.27 Q200 1405.27 203.056 1409.88 Q206.135 1414.46 206.135 1423.21 Q206.135 1431.94 203.056 1436.55 Q200 1441.13 194.19 1441.13 Q188.38 1441.13 185.301 1436.55 Q182.246 1431.94 182.246 1423.21 Q182.246 1414.46 185.301 1409.88 Q188.38 1405.27 194.19 1405.27 Z" fill="#000000" fill-rule="nonzero" fill-opacity="1"></path><path clip-path="url(#clip110)" d="M224.352 1408.98 Q220.741 1408.98 218.912 1412.54 Q217.107 1416.08 217.107 1423.21 Q217.107 1430.32 218.912 1433.89 Q220.741 1437.43 224.352 1437.43 Q227.986 1437.43 229.792 1433.89 Q231.621 1430.32 231.621 1423.21 Q231.621 1416.08 229.792 1412.54 Q227.986 1408.98 224.352 1408.98 M224.352 1405.27 Q230.162 1405.27 233.218 1409.88 Q236.297 1414.46 236.297 1423.21 Q236.297 1431.94 233.218 1436.55 Q230.162 1441.13 224.352 1441.13 Q218.542 1441.13 215.463 1436.55 Q212.408 1431.94 212.408 1423.21 Q212.408 1414.46 215.463 1409.88 Q218.542 1405.27 224.352 1405.27 Z" fill="#000000" fill-rule="nonzero" fill-opacity="1"></path><path clip-path="url(#clip110)" d="M114.26 1098.7 L143.936 1098.7 L143.936 1102.64 L114.26 1102.64 L114.26 1098.7 Z" fill="#000000" fill-rule="nonzero" fill-opacity="1"></path><path clip-path="url(#clip110)" d="M154.839 1111.6 L162.477 1111.6 L162.477 1085.23 L154.167 1086.9 L154.167 1082.64 L162.431 1080.97 L167.107 1080.97 L167.107 1111.6 L174.746 1111.6 L174.746 1115.53 L154.839 1115.53 L154.839 1111.6 Z" fill="#000000" fill-rule="nonzero" fill-opacity="1"></path><path clip-path="url(#clip110)" d="M184.237 1080.97 L202.593 1080.97 L202.593 1084.91 L188.519 1084.91 L188.519 1093.38 Q189.538 1093.03 190.556 1092.87 Q191.575 1092.69 192.593 1092.69 Q198.38 1092.69 201.76 1095.86 Q205.139 1099.03 205.139 1104.45 Q205.139 1110.02 201.667 1113.13 Q198.195 1116.2 191.875 1116.2 Q189.7 1116.2 187.431 1115.83 Q185.186 1115.46 182.778 1114.72 L182.778 1110.02 Q184.862 1111.16 187.084 1111.71 Q189.306 1112.27 191.783 1112.27 Q195.787 1112.27 198.125 1110.16 Q200.463 1108.06 200.463 1104.45 Q200.463 1100.83 198.125 1098.73 Q195.787 1096.62 191.783 1096.62 Q189.908 1096.62 188.033 1097.04 Q186.181 1097.45 184.237 1098.33 L184.237 1080.97 Z" fill="#000000" fill-rule="nonzero" fill-opacity="1"></path><path clip-path="url(#clip110)" d="M224.352 1084.05 Q220.741 1084.05 218.912 1087.62 Q217.107 1091.16 217.107 1098.29 Q217.107 1105.39 218.912 1108.96 Q220.741 1112.5 224.352 1112.5 Q227.986 1112.5 229.792 1108.96 Q231.621 1105.39 231.621 1098.29 Q231.621 1091.16 229.792 1087.62 Q227.986 1084.05 224.352 1084.05 M224.352 1080.35 Q230.162 1080.35 233.218 1084.95 Q236.297 1089.54 236.297 1098.29 Q236.297 1107.01 233.218 1111.62 Q230.162 1116.2 224.352 1116.2 Q218.542 1116.2 215.463 1111.62 Q212.408 1107.01 212.408 1098.29 Q212.408 1089.54 215.463 1084.95 Q218.542 1080.35 224.352 1080.35 Z" fill="#000000" fill-rule="nonzero" fill-opacity="1"></path><path clip-path="url(#clip110)" d="M114.26 773.777 L143.936 773.777 L143.936 777.713 L114.26 777.713 L114.26 773.777 Z" fill="#000000" fill-rule="nonzero" fill-opacity="1"></path><path clip-path="url(#clip110)" d="M154.839 786.671 L162.477 786.671 L162.477 760.305 L154.167 761.972 L154.167 757.713 L162.431 756.046 L167.107 756.046 L167.107 786.671 L174.746 786.671 L174.746 790.606 L154.839 790.606 L154.839 786.671 Z" fill="#000000" fill-rule="nonzero" fill-opacity="1"></path><path clip-path="url(#clip110)" d="M194.19 759.125 Q190.579 759.125 188.75 762.689 Q186.945 766.231 186.945 773.361 Q186.945 780.467 188.75 784.032 Q190.579 787.574 194.19 787.574 Q197.825 787.574 199.63 784.032 Q201.459 780.467 201.459 773.361 Q201.459 766.231 199.63 762.689 Q197.825 759.125 194.19 759.125 M194.19 755.421 Q200 755.421 203.056 760.027 Q206.135 764.611 206.135 773.361 Q206.135 782.088 203.056 786.694 Q200 791.277 194.19 791.277 Q188.38 791.277 185.301 786.694 Q182.246 782.088 182.246 773.361 Q182.246 764.611 185.301 760.027 Q188.38 755.421 194.19 755.421 Z" fill="#000000" fill-rule="nonzero" fill-opacity="1"></path><path clip-path="url(#clip110)" d="M224.352 759.125 Q220.741 759.125 218.912 762.689 Q217.107 766.231 217.107 773.361 Q217.107 780.467 218.912 784.032 Q220.741 787.574 224.352 787.574 Q227.986 787.574 229.792 784.032 Q231.621 780.467 231.621 773.361 Q231.621 766.231 229.792 762.689 Q227.986 759.125 224.352 759.125 M224.352 755.421 Q230.162 755.421 233.218 760.027 Q236.297 764.611 236.297 773.361 Q236.297 782.088 233.218 786.694 Q230.162 791.277 224.352 791.277 Q218.542 791.277 215.463 786.694 Q212.408 782.088 212.408 773.361 Q212.408 764.611 215.463 760.027 Q218.542 755.421 224.352 755.421 Z" fill="#000000" fill-rule="nonzero" fill-opacity="1"></path><path clip-path="url(#clip110)" d="M144.422 448.85 L174.098 448.85 L174.098 452.786 L144.422 452.786 L144.422 448.85 Z" fill="#000000" fill-rule="nonzero" fill-opacity="1"></path><path clip-path="url(#clip110)" d="M184.237 431.119 L202.593 431.119 L202.593 435.054 L188.519 435.054 L188.519 443.526 Q189.538 443.179 190.556 443.017 Q191.575 442.832 192.593 442.832 Q198.38 442.832 201.76 446.003 Q205.139 449.175 205.139 454.591 Q205.139 460.17 201.667 463.272 Q198.195 466.35 191.875 466.35 Q189.7 466.35 187.431 465.98 Q185.186 465.61 182.778 464.869 L182.778 460.17 Q184.862 461.304 187.084 461.86 Q189.306 462.415 191.783 462.415 Q195.787 462.415 198.125 460.309 Q200.463 458.202 200.463 454.591 Q200.463 450.98 198.125 448.874 Q195.787 446.767 191.783 446.767 Q189.908 446.767 188.033 447.184 Q186.181 447.6 184.237 448.48 L184.237 431.119 Z" fill="#000000" fill-rule="nonzero" fill-opacity="1"></path><path clip-path="url(#clip110)" d="M224.352 434.198 Q220.741 434.198 218.912 437.763 Q217.107 441.304 217.107 448.434 Q217.107 455.54 218.912 459.105 Q220.741 462.647 224.352 462.647 Q227.986 462.647 229.792 459.105 Q231.621 455.54 231.621 448.434 Q231.621 441.304 229.792 437.763 Q227.986 434.198 224.352 434.198 M224.352 430.494 Q230.162 430.494 233.218 435.101 Q236.297 439.684 236.297 448.434 Q236.297 457.161 233.218 461.767 Q230.162 466.35 224.352 466.35 Q218.542 466.35 215.463 461.767 Q212.408 457.161 212.408 448.434 Q212.408 439.684 215.463 435.101 Q218.542 430.494 224.352 430.494 Z" fill="#000000" fill-rule="nonzero" fill-opacity="1"></path><path clip-path="url(#clip110)" d="M224.352 109.271 Q220.741 109.271 218.912 112.836 Q217.107 116.377 217.107 123.507 Q217.107 130.613 218.912 134.178 Q220.741 137.72 224.352 137.72 Q227.986 137.72 229.792 134.178 Q231.621 130.613 231.621 123.507 Q231.621 116.377 229.792 112.836 Q227.986 109.271 224.352 109.271 M224.352 105.567 Q230.162 105.567 233.218 110.174 Q236.297 114.757 236.297 123.507 Q236.297 132.234 233.218 136.84 Q230.162 141.423 224.352 141.423 Q218.542 141.423 215.463 136.84 Q212.408 132.234 212.408 123.507 Q212.408 114.757 215.463 110.174 Q218.542 105.567 224.352 105.567 Z" fill="#000000" fill-rule="nonzero" fill-opacity="1"></path><path clip-path="url(#clip110)" d="M28.3562 892.572 L28.3562 864.753 L33.7034 864.753 L59.3254 886.779 L59.3254 864.753 L64.0042 864.753 L64.0042 893.367 L58.657 893.367 L33.035 871.342 L33.035 892.572 L28.3562 892.572 Z" fill="#000000" fill-rule="nonzero" fill-opacity="1"></path><path clip-path="url(#clip110)" d="M14.479 835.63 L14.479 822.135 L19.0304 822.135 L19.0304 829.774 L68.0464 829.774 L68.0464 822.135 L72.5979 822.135 L72.5979 835.63 L14.479 835.63 Z" fill="#000000" fill-rule="nonzero" fill-opacity="1"></path><path clip-path="url(#clip110)" d="M14.479 789.161 L14.479 783.272 L43.7294 783.272 L28.3562 765.799 L28.3562 758.319 L45.0344 777.225 L64.0042 757.523 L64.0042 765.162 L46.5939 783.272 L64.0042 783.272 L64.0042 789.161 L14.479 789.161 Z" fill="#000000" fill-rule="nonzero" fill-opacity="1"></path><path clip-path="url(#clip110)" d="M35.1993 723.435 Q31.2526 721.239 29.3747 718.183 Q27.4968 715.128 27.4968 710.99 Q27.4968 705.42 31.4117 702.396 Q35.2948 699.372 42.4881 699.372 L64.0042 699.372 L64.0042 705.261 L42.679 705.261 Q37.5546 705.261 35.072 707.075 Q32.5894 708.889 32.5894 712.613 Q32.5894 717.165 35.6131 719.806 Q38.6368 722.448 43.8567 722.448 L64.0042 722.448 L64.0042 728.336 L42.679 728.336 Q37.5228 728.336 35.072 730.151 Q32.5894 731.965 32.5894 735.752 Q32.5894 740.24 35.6449 742.882 Q38.6686 745.524 43.8567 745.524 L64.0042 745.524 L64.0042 751.412 L28.3562 751.412 L28.3562 745.524 L33.8944 745.524 Q30.616 743.519 29.0564 740.718 Q27.4968 737.917 27.4968 734.065 Q27.4968 730.182 29.4702 727.477 Q31.4436 724.74 35.1993 723.435 Z" fill="#000000" fill-rule="nonzero" fill-opacity="1"></path><path clip-path="url(#clip110)" d="M14.479 653.285 L72.5979 653.285 L72.5979 666.78 L68.0464 666.78 L68.0464 659.173 L19.0304 659.173 L19.0304 666.78 L14.479 666.78 L14.479 653.285 Z" fill="#000000" fill-rule="nonzero" fill-opacity="1"></path><path clip-path="url(#clip110)" d="M358.356 17.6457 Q349.444 17.6457 344.178 24.2892 Q338.952 30.9327 338.952 42.3968 Q338.952 53.8203 344.178 60.4638 Q349.444 67.1073 358.356 67.1073 Q367.268 67.1073 372.453 60.4638 Q377.678 53.8203 377.678 42.3968 Q377.678 30.9327 372.453 24.2892 Q367.268 17.6457 358.356 17.6457 M358.356 11.0023 Q371.076 11.0023 378.691 19.5497 Q386.307 28.0566 386.307 42.3968 Q386.307 56.6965 378.691 65.2439 Q371.076 73.7508 358.356 73.7508 Q345.595 73.7508 337.939 65.2439 Q330.323 56.737 330.323 42.3968 Q330.323 28.0566 337.939 19.5497 Q345.595 11.0023 358.356 11.0023 Z" fill="#000000" fill-rule="nonzero" fill-opacity="1"></path><path clip-path="url(#clip110)" d="M431.434 28.9478 L431.434 35.9153 Q428.274 34.1734 425.074 33.3227 Q421.914 32.4315 418.674 32.4315 Q411.423 32.4315 407.412 37.0496 Q403.402 41.6271 403.402 49.9314 Q403.402 58.2358 407.412 62.8538 Q411.423 67.4314 418.674 67.4314 Q421.914 67.4314 425.074 66.5807 Q428.274 65.6895 431.434 63.9476 L431.434 70.8341 Q428.315 72.2924 424.953 73.0216 Q421.631 73.7508 417.863 73.7508 Q407.615 73.7508 401.579 67.3098 Q395.543 60.8689 395.543 49.9314 Q395.543 38.832 401.619 32.472 Q407.736 26.1121 418.35 26.1121 Q421.793 26.1121 425.074 26.8413 Q428.355 27.5299 431.434 28.9478 Z" fill="#000000" fill-rule="nonzero" fill-opacity="1"></path><path clip-path="url(#clip110)" d="M483.205 48.0275 L483.205 51.6733 L448.934 51.6733 Q449.42 59.3701 453.552 63.421 Q457.724 67.4314 465.138 67.4314 Q469.431 67.4314 473.442 66.3781 Q477.493 65.3249 481.463 63.2184 L481.463 70.267 Q477.452 71.9684 473.239 72.8596 Q469.026 73.7508 464.692 73.7508 Q453.835 73.7508 447.476 67.4314 Q441.156 61.1119 441.156 50.3365 Q441.156 39.1965 447.151 32.6746 Q453.187 26.1121 463.396 26.1121 Q472.551 26.1121 477.857 32.0264 Q483.205 37.9003 483.205 48.0275 M475.751 45.84 Q475.67 39.7232 472.308 36.0774 Q468.986 32.4315 463.477 32.4315 Q457.238 32.4315 453.471 35.9558 Q449.744 39.4801 449.177 45.8805 L475.751 45.84 Z" fill="#000000" fill-rule="nonzero" fill-opacity="1"></path><path clip-path="url(#clip110)" d="M516.057 49.7694 Q507.024 49.7694 503.54 51.8354 Q500.056 53.9013 500.056 58.8839 Q500.056 62.8538 502.649 65.2034 Q505.282 67.5124 509.778 67.5124 Q515.976 67.5124 519.703 63.1374 Q523.471 58.7219 523.471 51.4303 L523.471 49.7694 L516.057 49.7694 M530.924 46.6907 L530.924 72.576 L523.471 72.576 L523.471 65.6895 Q520.918 69.8214 517.111 71.8063 Q513.303 73.7508 507.794 73.7508 Q500.826 73.7508 496.694 69.8619 Q492.603 65.9325 492.603 59.3701 Q492.603 51.7138 497.707 47.825 Q502.851 43.9361 513.019 43.9361 L523.471 43.9361 L523.471 43.2069 Q523.471 38.0623 520.068 35.2672 Q516.706 32.4315 510.589 32.4315 Q506.7 32.4315 503.013 33.3632 Q499.327 34.295 495.924 36.1584 L495.924 29.2718 Q500.016 27.692 503.864 26.9223 Q507.713 26.1121 511.358 26.1121 Q521.202 26.1121 526.063 31.2163 Q530.924 36.3204 530.924 46.6907 Z" fill="#000000" fill-rule="nonzero" fill-opacity="1"></path><path clip-path="url(#clip110)" d="M583.991 45.1919 L583.991 72.576 L576.537 72.576 L576.537 45.4349 Q576.537 38.994 574.026 35.7938 Q571.514 32.5936 566.491 32.5936 Q560.455 32.5936 556.972 36.4419 Q553.488 40.2903 553.488 46.9338 L553.488 72.576 L545.994 72.576 L545.994 27.2059 L553.488 27.2059 L553.488 34.2544 Q556.161 30.163 559.767 28.1376 Q563.412 26.1121 568.152 26.1121 Q575.97 26.1121 579.981 30.9732 Q583.991 35.7938 583.991 45.1919 Z" fill="#000000" fill-rule="nonzero" fill-opacity="1"></path><path clip-path="url(#clip110)" d="M598.858 27.2059 L606.312 27.2059 L606.312 72.576 L598.858 72.576 L598.858 27.2059 M598.858 9.54393 L606.312 9.54393 L606.312 18.9825 L598.858 18.9825 L598.858 9.54393 Z" fill="#000000" fill-rule="nonzero" fill-opacity="1"></path><path clip-path="url(#clip110)" d="M654.558 28.9478 L654.558 35.9153 Q651.398 34.1734 648.198 33.3227 Q645.038 32.4315 641.797 32.4315 Q634.546 32.4315 630.536 37.0496 Q626.526 41.6271 626.526 49.9314 Q626.526 58.2358 630.536 62.8538 Q634.546 67.4314 641.797 67.4314 Q645.038 67.4314 648.198 66.5807 Q651.398 65.6895 654.558 63.9476 L654.558 70.8341 Q651.439 72.2924 648.076 73.0216 Q644.755 73.7508 640.987 73.7508 Q630.738 73.7508 624.703 67.3098 Q618.667 60.8689 618.667 49.9314 Q618.667 38.832 624.743 32.472 Q630.86 26.1121 641.473 26.1121 Q644.917 26.1121 648.198 26.8413 Q651.479 27.5299 654.558 28.9478 Z" fill="#000000" fill-rule="nonzero" fill-opacity="1"></path><path clip-path="url(#clip110)" d="M735.454 63.9476 L735.454 47.7034 L722.086 47.7034 L722.086 40.9789 L743.556 40.9789 L743.556 66.9452 Q738.817 70.3075 733.105 72.0494 Q727.393 73.7508 720.912 73.7508 Q706.733 73.7508 698.713 65.4869 Q690.732 57.1826 690.732 42.3968 Q690.732 27.5705 698.713 19.3066 Q706.733 11.0023 720.912 11.0023 Q726.826 11.0023 732.133 12.4606 Q737.48 13.9189 741.976 16.7545 L741.976 25.464 Q737.439 21.6156 732.335 19.6712 Q727.231 17.7268 721.6 17.7268 Q710.501 17.7268 704.911 23.9246 Q699.361 30.1225 699.361 42.3968 Q699.361 54.6305 704.911 60.8284 Q710.501 67.0263 721.6 67.0263 Q725.935 67.0263 729.337 66.2971 Q732.74 65.5274 735.454 63.9476 Z" fill="#000000" fill-rule="nonzero" fill-opacity="1"></path><path clip-path="url(#clip110)" d="M796.988 48.0275 L796.988 51.6733 L762.717 51.6733 Q763.203 59.3701 767.335 63.421 Q771.507 67.4314 778.921 67.4314 Q783.215 67.4314 787.225 66.3781 Q791.276 65.3249 795.246 63.2184 L795.246 70.267 Q791.235 71.9684 787.022 72.8596 Q782.809 73.7508 778.475 73.7508 Q767.619 73.7508 761.259 67.4314 Q754.939 61.1119 754.939 50.3365 Q754.939 39.1965 760.935 32.6746 Q766.97 26.1121 777.179 26.1121 Q786.334 26.1121 791.64 32.0264 Q796.988 37.9003 796.988 48.0275 M789.534 45.84 Q789.453 39.7232 786.091 36.0774 Q782.769 32.4315 777.26 32.4315 Q771.021 32.4315 767.254 35.9558 Q763.527 39.4801 762.96 45.8805 L789.534 45.84 Z" fill="#000000" fill-rule="nonzero" fill-opacity="1"></path><path clip-path="url(#clip110)" d="M826.802 32.4315 Q820.807 32.4315 817.323 37.1306 Q813.839 41.7891 813.839 49.9314 Q813.839 58.0738 817.283 62.7728 Q820.766 67.4314 826.802 67.4314 Q832.757 67.4314 836.241 62.7323 Q839.725 58.0333 839.725 49.9314 Q839.725 41.8701 836.241 37.1711 Q832.757 32.4315 826.802 32.4315 M826.802 26.1121 Q836.524 26.1121 842.074 32.4315 Q847.624 38.7509 847.624 49.9314 Q847.624 61.0714 842.074 67.4314 Q836.524 73.7508 826.802 73.7508 Q817.04 73.7508 811.49 67.4314 Q805.981 61.0714 805.981 49.9314 Q805.981 38.7509 811.49 32.4315 Q817.04 26.1121 826.802 26.1121 Z" fill="#000000" fill-rule="nonzero" fill-opacity="1"></path><path clip-path="url(#clip110)" d="M867.352 14.324 L867.352 27.2059 L882.705 27.2059 L882.705 32.9987 L867.352 32.9987 L867.352 57.6282 Q867.352 63.1779 868.851 64.7578 Q870.39 66.3376 875.049 66.3376 L882.705 66.3376 L882.705 72.576 L875.049 72.576 Q866.42 72.576 863.139 69.3758 Q859.858 66.1351 859.858 57.6282 L859.858 32.9987 L854.389 32.9987 L854.389 27.2059 L859.858 27.2059 L859.858 14.324 L867.352 14.324 Z" fill="#000000" fill-rule="nonzero" fill-opacity="1"></path><path clip-path="url(#clip110)" d="M930.222 45.1919 L930.222 72.576 L922.768 72.576 L922.768 45.4349 Q922.768 38.994 920.257 35.7938 Q917.745 32.5936 912.722 32.5936 Q906.686 32.5936 903.202 36.4419 Q899.719 40.2903 899.719 46.9338 L899.719 72.576 L892.224 72.576 L892.224 9.54393 L899.719 9.54393 L899.719 34.2544 Q902.392 30.163 905.997 28.1376 Q909.643 26.1121 914.383 26.1121 Q922.201 26.1121 926.211 30.9732 Q930.222 35.7938 930.222 45.1919 Z" fill="#000000" fill-rule="nonzero" fill-opacity="1"></path><path clip-path="url(#clip110)" d="M983.896 48.0275 L983.896 51.6733 L949.626 51.6733 Q950.112 59.3701 954.244 63.421 Q958.416 67.4314 965.829 67.4314 Q970.123 67.4314 974.134 66.3781 Q978.185 65.3249 982.154 63.2184 L982.154 70.267 Q978.144 71.9684 973.931 72.8596 Q969.718 73.7508 965.384 73.7508 Q954.527 73.7508 948.167 67.4314 Q941.848 61.1119 941.848 50.3365 Q941.848 39.1965 947.843 32.6746 Q953.879 26.1121 964.087 26.1121 Q973.242 26.1121 978.549 32.0264 Q983.896 37.9003 983.896 48.0275 M976.443 45.84 Q976.362 39.7232 972.999 36.0774 Q969.678 32.4315 964.168 32.4315 Q957.93 32.4315 954.163 35.9558 Q950.436 39.4801 949.869 45.8805 L976.443 45.84 Z" fill="#000000" fill-rule="nonzero" fill-opacity="1"></path><path clip-path="url(#clip110)" d="M1022.42 34.1734 Q1021.16 33.4443 1019.67 33.1202 Q1018.21 32.7556 1016.43 32.7556 Q1010.11 32.7556 1006.7 36.8875 Q1003.34 40.9789 1003.34 48.6757 L1003.34 72.576 L995.846 72.576 L995.846 27.2059 L1003.34 27.2059 L1003.34 34.2544 Q1005.69 30.1225 1009.46 28.1376 Q1013.22 26.1121 1018.61 26.1121 Q1019.38 26.1121 1020.31 26.2337 Q1021.25 26.3147 1022.38 26.5172 L1022.42 34.1734 Z" fill="#000000" fill-rule="nonzero" fill-opacity="1"></path><path clip-path="url(#clip110)" d="M1064.1 35.9153 Q1066.9 30.8922 1070.79 28.5022 Q1074.68 26.1121 1079.94 26.1121 Q1087.03 26.1121 1090.88 31.0947 Q1094.73 36.0368 1094.73 45.1919 L1094.73 72.576 L1087.23 72.576 L1087.23 45.4349 Q1087.23 38.913 1084.93 35.7533 Q1082.62 32.5936 1077.88 32.5936 Q1072.08 32.5936 1068.72 36.4419 Q1065.36 40.2903 1065.36 46.9338 L1065.36 72.576 L1057.87 72.576 L1057.87 45.4349 Q1057.87 38.8725 1055.56 35.7533 Q1053.25 32.5936 1048.43 32.5936 Q1042.72 32.5936 1039.35 36.4824 Q1035.99 40.3308 1035.99 46.9338 L1035.99 72.576 L1028.5 72.576 L1028.5 27.2059 L1035.99 27.2059 L1035.99 34.2544 Q1038.54 30.082 1042.11 28.0971 Q1045.67 26.1121 1050.57 26.1121 Q1055.52 26.1121 1058.96 28.6237 Q1062.44 31.1352 1064.1 35.9153 Z" fill="#000000" fill-rule="nonzero" fill-opacity="1"></path><polyline clip-path="url(#clip112)" style="stroke:#009af9; stroke-linecap:round; stroke-linejoin:round; stroke-width:4; stroke-opacity:1; fill:none" points="1152.55,1419.93 1152.13,1413.43 1151.71,1406.93 1151.29,1400.43 1150.87,1393.94 1150.44,1387.44 1150.02,1380.94 1149.59,1374.44 1149.17,1367.94 1148.74,1361.44 1148.3,1354.95 1147.87,1348.45 1147.43,1341.95 1146.99,1335.45 1146.54,1328.95 1146.09,1322.45 1145.64,1315.95 1145.18,1309.46 1144.71,1302.96 1144.24,1296.46 1143.76,1289.96 1143.28,1283.46 1142.79,1276.96 1142.3,1270.46 1141.79,1263.97 1141.28,1257.47 1140.77,1250.97 1140.24,1244.47 1139.7,1237.97 1139.16,1231.47 1138.6,1224.97 1138.04,1218.48 1137.46,1211.98 1136.88,1205.48 1136.28,1198.98 1135.67,1192.48 1135.05,1185.98 1134.41,1179.48 1133.76,1172.99 1133.1,1166.49 1132.42,1159.99 1131.73,1153.49 1131.02,1146.99 1130.3,1140.49 1129.55,1133.99 1128.8,1127.5 1128.02,1121 1127.22,1114.5 1126.4,1108 1125.57,1101.5 1124.71,1095 1123.83,1088.51 1122.93,1082.01 1122,1075.51 1121.05,1069.01 1120.08,1062.51 1119.08,1056.01 1118.05,1049.51 1117,1043.02 1115.92,1036.52 1114.81,1030.02 1113.67,1023.52 1112.5,1017.02 1111.3,1010.52 1110.06,1004.02 1108.79,997.526 1107.49,991.027 1106.15,984.528 1104.77,978.03 1103.36,971.531 1101.91,965.033 1100.42,958.534 1098.89,952.036 1097.32,945.537 1095.7,939.039 1094.04,932.54 1092.33,926.042 1090.58,919.543 1088.78,913.045 1086.94,906.546 1085.04,900.047 1083.09,893.549 1081.09,887.05 1079.04,880.552 1076.94,874.053 1074.77,867.555 1072.55,861.056 1070.28,854.558 1067.94,848.059 1065.54,841.561 1063.08,835.062 1060.56,828.564 1057.98,822.065 1055.33,815.566 1052.61,809.068 1049.82,802.569 1046.97,796.071 1044.04,789.572 1041.04,783.074 1037.97,776.575 1034.83,770.077 1031.61,763.578 1028.31,757.08 1024.94,750.581 1021.48,744.083 1017.95,737.584 1014.33,731.085 1010.63,724.587 1006.85,718.088 1002.99,711.59 999.034,705.091 994.994,698.593 990.867,692.094 986.65,685.596 982.343,679.097 977.944,672.599 973.454,666.1 968.87,659.602 964.192,653.103 959.419,646.604 954.551,640.106 949.585,633.607 944.522,627.109 939.361,620.61 934.101,614.112 928.742,607.613 923.282,601.115 917.721,594.616 912.059,588.118 906.295,581.619 900.428,575.121 894.458,568.622 888.385,562.123 882.209,555.625 875.929,549.126 869.544,542.628 863.056,536.129 856.462,529.631 849.765,523.132 842.962,516.634 836.056,510.135 829.044,503.637 821.929,497.138 814.709,490.64 807.386,484.141 799.959,477.642 792.429,471.144 784.796,464.645 777.061,458.147 769.225,451.648 761.287,445.15 753.25,438.651 745.112,432.153 736.876,425.654 728.542,419.156 720.111,412.657 711.584,406.159 702.962,399.66 694.246,393.161 685.438,386.663 676.538,380.164 667.549,373.666 658.471,367.167 649.305,360.669 640.054,354.17 630.718,347.672 621.3,341.173 611.801,334.675 602.223,328.176 592.568,321.678 582.837,315.179 573.032,308.68 563.156,302.182 553.21,295.683 543.196,289.185 533.117,282.686 522.974,276.188 512.771,269.689 502.508,263.191 492.189,256.692 481.815,250.194 471.389,243.695 460.914,237.197 450.392,230.698 439.825,224.199 429.216,217.701 418.568,211.202 407.883,204.704 397.163,198.205 386.412,191.707 375.632,185.208 364.825,178.71 353.995,172.211 343.145,165.713 332.276,159.214 321.391,152.716 310.494,146.217 299.588,139.718 288.674,133.22 277.756,126.721 "></polyline>
<polyline clip-path="url(#clip112)" style="stroke:#e26f46; stroke-linecap:round; stroke-linejoin:round; stroke-width:4; stroke-opacity:1; fill:none" stroke-dasharray="16, 10" points="1151.63,1419.93 1151.26,1413.43 1150.89,1406.93 1150.52,1400.43 1150.14,1393.94 1149.76,1387.44 1149.37,1380.94 1148.98,1374.44 1148.59,1367.94 1148.19,1361.44 1147.79,1354.95 1147.39,1348.45 1146.98,1341.95 1146.56,1335.45 1146.14,1328.95 1145.71,1322.45 1145.28,1315.95 1144.84,1309.46 1144.4,1302.96 1143.94,1296.46 1143.49,1289.96 1143.02,1283.46 1142.55,1276.96 1142.07,1270.46 1141.58,1263.97 1141.08,1257.47 1140.57,1250.97 1140.06,1244.47 1139.53,1237.97 1139,1231.47 1138.46,1224.97 1137.9,1218.48 1137.33,1211.98 1136.76,1205.48 1136.17,1198.98 1135.56,1192.48 1134.95,1185.98 1134.32,1179.48 1133.68,1172.99 1133.02,1166.49 1132.35,1159.99 1131.66,1153.49 1130.95,1146.99 1130.23,1140.49 1129.5,1133.99 1128.74,1127.5 1127.97,1121 1127.17,1114.5 1126.36,1108 1125.52,1101.5 1124.67,1095 1123.79,1088.51 1122.89,1082.01 1121.97,1075.51 1121.02,1069.01 1120.05,1062.51 1119.05,1056.01 1118.03,1049.51 1116.98,1043.02 1115.9,1036.52 1114.79,1030.02 1113.65,1023.52 1112.48,1017.02 1111.28,1010.52 1110.05,1004.02 1108.78,997.526 1107.48,991.027 1106.14,984.528 1104.76,978.03 1103.35,971.531 1101.9,965.033 1100.41,958.534 1098.88,952.036 1097.31,945.537 1095.69,939.039 1094.03,932.54 1092.33,926.042 1090.58,919.543 1088.78,913.045 1086.94,906.546 1085.04,900.047 1083.09,893.549 1081.09,887.05 1079.04,880.552 1076.94,874.053 1074.77,867.555 1072.56,861.056 1070.28,854.558 1067.94,848.059 1065.55,841.561 1063.09,835.062 1060.57,828.564 1057.98,822.065 1055.33,815.566 1052.61,809.068 1049.83,802.569 1046.97,796.071 1044.05,789.572 1041.05,783.074 1037.98,776.575 1034.84,770.077 1031.62,763.578 1028.32,757.08 1024.95,750.581 1021.49,744.083 1017.96,737.584 1014.34,731.085 1010.65,724.587 1006.87,718.088 1003,711.59 999.047,705.091 995.008,698.593 990.881,692.094 986.664,685.596 982.357,679.097 977.959,672.599 973.469,666.1 968.886,659.602 964.209,653.103 959.436,646.604 954.568,640.106 949.603,633.607 944.54,627.109 939.38,620.61 934.12,614.112 928.761,607.613 923.301,601.115 917.741,594.616 912.079,588.118 906.315,581.619 900.449,575.121 894.479,568.622 888.407,562.123 882.231,555.625 875.951,549.126 869.566,542.628 863.078,536.129 856.485,529.631 849.787,523.132 842.985,516.634 836.079,510.135 829.068,503.637 821.952,497.138 814.733,490.64 807.41,484.141 799.983,477.642 792.453,471.144 784.82,464.645 777.085,458.147 769.249,451.648 761.311,445.15 753.274,438.651 745.136,432.153 736.9,425.654 728.566,419.156 720.134,412.657 711.607,406.159 702.985,399.66 694.269,393.161 685.461,386.663 676.561,380.164 667.571,373.666 658.493,367.167 649.327,360.669 640.076,354.17 630.74,347.672 621.321,341.173 611.822,334.675 602.244,328.176 592.588,321.678 582.856,315.179 573.051,308.68 563.175,302.182 553.228,295.683 543.214,289.185 533.134,282.686 522.991,276.188 512.787,269.689 502.523,263.191 492.203,256.692 481.829,250.194 471.403,243.695 460.927,237.197 450.404,230.698 439.837,224.199 429.227,217.701 418.578,211.202 407.892,204.704 397.172,198.205 386.42,191.707 375.639,185.208 364.832,178.71 354.001,172.211 343.15,165.713 332.28,159.214 321.395,152.716 310.497,146.217 299.59,139.718 288.675,133.22 272.297,126.721 "></polyline>
<path clip-path="url(#clip110)" d="M739.761 322.316 L1123.41 322.316 L1123.41 166.796 L739.761 166.796  Z" fill="#ffffff" fill-rule="evenodd" fill-opacity="1"></path>
<polyline clip-path="url(#clip110)" style="stroke:#000000; stroke-linecap:round; stroke-linejoin:round; stroke-width:4; stroke-opacity:1; fill:none" points="739.761,322.316 1123.41,322.316 1123.41,166.796 739.761,166.796 739.761,322.316 "></polyline>
<polyline clip-path="url(#clip110)" style="stroke:#009af9; stroke-linecap:round; stroke-linejoin:round; stroke-width:4; stroke-opacity:1; fill:none" points="749.544,218.636 808.241,218.636 "></polyline>
<path clip-path="url(#clip110)" d="M825.431 202.629 L825.431 209.99 L834.205 209.99 L834.205 213.3 L825.431 213.3 L825.431 227.374 Q825.431 230.545 826.288 231.448 Q827.168 232.351 829.83 232.351 L834.205 232.351 L834.205 235.916 L829.83 235.916 Q824.899 235.916 823.024 234.087 Q821.149 232.235 821.149 227.374 L821.149 213.3 L818.024 213.3 L818.024 209.99 L821.149 209.99 L821.149 202.629 L825.431 202.629 Z" fill="#000000" fill-rule="nonzero" fill-opacity="1"></path><path clip-path="url(#clip110)" d="M855.431 214.388 L885.107 214.388 L885.107 218.277 L855.431 218.277 L855.431 214.388 M855.431 223.832 L885.107 223.832 L885.107 227.768 L855.431 227.768 L855.431 223.832 Z" fill="#000000" fill-rule="nonzero" fill-opacity="1"></path><path clip-path="url(#clip110)" d="M920.848 216.772 Q917.7 216.772 915.848 218.925 Q914.019 221.078 914.019 224.828 Q914.019 228.555 915.848 230.731 Q917.7 232.883 920.848 232.883 Q923.996 232.883 925.824 230.731 Q927.676 228.555 927.676 224.828 Q927.676 221.078 925.824 218.925 Q923.996 216.772 920.848 216.772 M930.13 202.12 L930.13 206.379 Q928.371 205.546 926.565 205.106 Q924.783 204.666 923.024 204.666 Q918.394 204.666 915.94 207.791 Q913.51 210.916 913.162 217.235 Q914.528 215.221 916.588 214.157 Q918.649 213.069 921.125 213.069 Q926.334 213.069 929.343 216.24 Q932.375 219.388 932.375 224.828 Q932.375 230.152 929.227 233.369 Q926.079 236.587 920.848 236.587 Q914.852 236.587 911.681 232.004 Q908.51 227.397 908.51 218.67 Q908.51 210.476 912.399 205.615 Q916.287 200.731 922.838 200.731 Q924.598 200.731 926.38 201.078 Q928.186 201.425 930.13 202.12 Z" fill="#000000" fill-rule="nonzero" fill-opacity="1"></path><path clip-path="url(#clip110)" d="M950.431 204.434 Q946.82 204.434 944.991 207.999 Q943.185 211.541 943.185 218.67 Q943.185 225.777 944.991 229.342 Q946.82 232.883 950.431 232.883 Q954.065 232.883 955.871 229.342 Q957.699 225.777 957.699 218.67 Q957.699 211.541 955.871 207.999 Q954.065 204.434 950.431 204.434 M950.431 200.731 Q956.241 200.731 959.297 205.337 Q962.375 209.92 962.375 218.67 Q962.375 227.397 959.297 232.004 Q956.241 236.587 950.431 236.587 Q944.621 236.587 941.542 232.004 Q938.486 227.397 938.486 218.67 Q938.486 209.92 941.542 205.337 Q944.621 200.731 950.431 200.731 Z" fill="#000000" fill-rule="nonzero" fill-opacity="1"></path><path clip-path="url(#clip110)" d="M970.593 230.036 L975.477 230.036 L975.477 235.916 L970.593 235.916 L970.593 230.036 Z" fill="#000000" fill-rule="nonzero" fill-opacity="1"></path><path clip-path="url(#clip110)" d="M995.662 204.434 Q992.051 204.434 990.222 207.999 Q988.417 211.541 988.417 218.67 Q988.417 225.777 990.222 229.342 Q992.051 232.883 995.662 232.883 Q999.296 232.883 1001.1 229.342 Q1002.93 225.777 1002.93 218.67 Q1002.93 211.541 1001.1 207.999 Q999.296 204.434 995.662 204.434 M995.662 200.731 Q1001.47 200.731 1004.53 205.337 Q1007.61 209.92 1007.61 218.67 Q1007.61 227.397 1004.53 232.004 Q1001.47 236.587 995.662 236.587 Q989.852 236.587 986.773 232.004 Q983.718 227.397 983.718 218.67 Q983.718 209.92 986.773 205.337 Q989.852 200.731 995.662 200.731 Z" fill="#000000" fill-rule="nonzero" fill-opacity="1"></path><path clip-path="url(#clip110)" d="M1014.83 199.897 L1024.64 199.897 L1024.64 203.208 L1019.09 203.208 L1019.09 238.856 L1024.64 238.856 L1024.64 242.166 L1014.83 242.166 L1014.83 199.897 Z" fill="#000000" fill-rule="nonzero" fill-opacity="1"></path><path clip-path="url(#clip110)" d="M1033.9 201.356 L1040.87 201.356 L1049.69 224.874 L1058.56 201.356 L1065.52 201.356 L1065.52 235.916 L1060.96 235.916 L1060.96 205.569 L1052.05 229.272 L1047.35 229.272 L1038.44 205.569 L1038.44 235.916 L1033.9 235.916 L1033.9 201.356 Z" fill="#000000" fill-rule="nonzero" fill-opacity="1"></path><path clip-path="url(#clip110)" d="M1086.4 222.883 Q1081.24 222.883 1079.25 224.064 Q1077.26 225.244 1077.26 228.092 Q1077.26 230.36 1078.74 231.703 Q1080.24 233.022 1082.81 233.022 Q1086.36 233.022 1088.49 230.522 Q1090.64 227.999 1090.64 223.832 L1090.64 222.883 L1086.4 222.883 M1094.9 221.124 L1094.9 235.916 L1090.64 235.916 L1090.64 231.981 Q1089.18 234.342 1087 235.476 Q1084.83 236.587 1081.68 236.587 Q1077.7 236.587 1075.34 234.365 Q1073 232.119 1073 228.369 Q1073 223.994 1075.92 221.772 Q1078.86 219.55 1084.67 219.55 L1090.64 219.55 L1090.64 219.133 Q1090.64 216.194 1088.69 214.596 Q1086.77 212.976 1083.28 212.976 Q1081.06 212.976 1078.95 213.508 Q1076.84 214.041 1074.9 215.106 L1074.9 211.17 Q1077.24 210.268 1079.43 209.828 Q1081.63 209.365 1083.72 209.365 Q1089.34 209.365 1092.12 212.282 Q1094.9 215.198 1094.9 221.124 Z" fill="#000000" fill-rule="nonzero" fill-opacity="1"></path><path clip-path="url(#clip110)" d="M1113.62 199.897 L1113.62 242.166 L1103.81 242.166 L1103.81 238.856 L1109.34 238.856 L1109.34 203.208 L1103.81 203.208 L1103.81 199.897 L1113.62 199.897 Z" fill="#000000" fill-rule="nonzero" fill-opacity="1"></path><polyline clip-path="url(#clip110)" style="stroke:#e26f46; stroke-linecap:round; stroke-linejoin:round; stroke-width:4; stroke-opacity:1; fill:none" stroke-dasharray="16, 10" points="749.544,270.476 808.241,270.476 "></polyline>
<path clip-path="url(#clip110)" d="M818.024 253.196 L847.26 253.196 L847.26 257.131 L834.992 257.131 L834.992 287.756 L830.293 287.756 L830.293 257.131 L818.024 257.131 L818.024 253.196 Z" fill="#000000" fill-rule="nonzero" fill-opacity="1"></path><path clip-path="url(#clip110)" d="M871.288 295.626 L871.288 298.936 L846.658 298.936 L846.658 295.626 L871.288 295.626 Z" fill="#000000" fill-rule="nonzero" fill-opacity="1"></path><path clip-path="url(#clip110)" d="M875.478 253.196 L880.153 253.196 L880.153 267.362 L897.144 267.362 L897.144 253.196 L901.82 253.196 L901.82 287.756 L897.144 287.756 L897.144 271.297 L880.153 271.297 L880.153 287.756 L875.478 287.756 L875.478 253.196 Z" fill="#000000" fill-rule="nonzero" fill-opacity="1"></path><path clip-path="url(#clip110)" d="M931.843 254.33 L931.843 258.89 Q929.181 257.617 926.82 256.992 Q924.459 256.367 922.26 256.367 Q918.44 256.367 916.357 257.848 Q914.297 259.33 914.297 262.061 Q914.297 264.353 915.662 265.534 Q917.051 266.691 920.894 267.409 L923.718 267.987 Q928.949 268.983 931.426 271.506 Q933.926 274.006 933.926 278.219 Q933.926 283.242 930.547 285.834 Q927.19 288.427 920.686 288.427 Q918.232 288.427 915.454 287.871 Q912.7 287.316 909.737 286.228 L909.737 281.413 Q912.584 283.01 915.315 283.821 Q918.047 284.631 920.686 284.631 Q924.69 284.631 926.866 283.057 Q929.042 281.483 929.042 278.566 Q929.042 276.02 927.468 274.584 Q925.917 273.149 922.352 272.432 L919.505 271.876 Q914.274 270.835 911.936 268.612 Q909.598 266.39 909.598 262.432 Q909.598 257.848 912.815 255.21 Q916.056 252.571 921.727 252.571 Q924.158 252.571 926.681 253.011 Q929.204 253.45 931.843 254.33 Z" fill="#000000" fill-rule="nonzero" fill-opacity="1"></path><path clip-path="url(#clip110)" d="M967.097 255.858 L967.097 260.788 Q964.736 258.589 962.051 257.501 Q959.389 256.413 956.38 256.413 Q950.454 256.413 947.306 260.048 Q944.158 263.659 944.158 270.51 Q944.158 277.339 947.306 280.973 Q950.454 284.584 956.38 284.584 Q959.389 284.584 962.051 283.496 Q964.736 282.409 967.097 280.209 L967.097 285.094 Q964.644 286.76 961.889 287.594 Q959.158 288.427 956.102 288.427 Q948.255 288.427 943.741 283.635 Q939.227 278.821 939.227 270.51 Q939.227 262.177 943.741 257.386 Q948.255 252.571 956.102 252.571 Q959.204 252.571 961.935 253.404 Q964.69 254.214 967.097 255.858 Z" fill="#000000" fill-rule="nonzero" fill-opacity="1"></path><path clip-path="url(#clip110)" d="M974.32 253.196 L981.287 253.196 L990.107 276.714 L998.972 253.196 L1005.94 253.196 L1005.94 287.756 L1001.38 287.756 L1001.38 257.409 L992.468 281.112 L987.769 281.112 L978.857 257.409 L978.857 287.756 L974.32 287.756 L974.32 253.196 Z" fill="#000000" fill-rule="nonzero" fill-opacity="1"></path><path clip-path="url(#clip110)" d="M1472.3 1423.18 L2352.76 1423.18 L2352.76 123.472 L1472.3 123.472  Z" fill="#ffffff" fill-rule="evenodd" fill-opacity="1"></path>
<defs>
  <clipPath id="clip113">
    <rect x="1472" y="123" width="881" height="1301"></rect>
  </clipPath>
</defs>
<polyline clip-path="url(#clip113)" style="stroke:#000000; stroke-linecap:round; stroke-linejoin:round; stroke-width:2; stroke-opacity:0.1; fill:none" points="1628.14,1423.18 1628.14,123.472 "></polyline>
<polyline clip-path="url(#clip113)" style="stroke:#000000; stroke-linecap:round; stroke-linejoin:round; stroke-width:2; stroke-opacity:0.1; fill:none" points="1792.22,1423.18 1792.22,123.472 "></polyline>
<polyline clip-path="url(#clip113)" style="stroke:#000000; stroke-linecap:round; stroke-linejoin:round; stroke-width:2; stroke-opacity:0.1; fill:none" points="1956.29,1423.18 1956.29,123.472 "></polyline>
<polyline clip-path="url(#clip113)" style="stroke:#000000; stroke-linecap:round; stroke-linejoin:round; stroke-width:2; stroke-opacity:0.1; fill:none" points="2120.36,1423.18 2120.36,123.472 "></polyline>
<polyline clip-path="url(#clip113)" style="stroke:#000000; stroke-linecap:round; stroke-linejoin:round; stroke-width:2; stroke-opacity:0.1; fill:none" points="2284.43,1423.18 2284.43,123.472 "></polyline>
<polyline clip-path="url(#clip113)" style="stroke:#000000; stroke-linecap:round; stroke-linejoin:round; stroke-width:2; stroke-opacity:0.1; fill:none" points="1472.3,1423.18 2352.76,1423.18 "></polyline>
<polyline clip-path="url(#clip113)" style="stroke:#000000; stroke-linecap:round; stroke-linejoin:round; stroke-width:2; stroke-opacity:0.1; fill:none" points="1472.3,1098.25 2352.76,1098.25 "></polyline>
<polyline clip-path="url(#clip113)" style="stroke:#000000; stroke-linecap:round; stroke-linejoin:round; stroke-width:2; stroke-opacity:0.1; fill:none" points="1472.3,773.326 2352.76,773.326 "></polyline>
<polyline clip-path="url(#clip113)" style="stroke:#000000; stroke-linecap:round; stroke-linejoin:round; stroke-width:2; stroke-opacity:0.1; fill:none" points="1472.3,448.399 2352.76,448.399 "></polyline>
<polyline clip-path="url(#clip113)" style="stroke:#000000; stroke-linecap:round; stroke-linejoin:round; stroke-width:2; stroke-opacity:0.1; fill:none" points="1472.3,123.472 2352.76,123.472 "></polyline>
<polyline clip-path="url(#clip110)" style="stroke:#000000; stroke-linecap:round; stroke-linejoin:round; stroke-width:4; stroke-opacity:1; fill:none" points="1472.3,1423.18 2352.76,1423.18 "></polyline>
<polyline clip-path="url(#clip110)" style="stroke:#000000; stroke-linecap:round; stroke-linejoin:round; stroke-width:4; stroke-opacity:1; fill:none" points="1628.14,1423.18 1628.14,1404.28 "></polyline>
<polyline clip-path="url(#clip110)" style="stroke:#000000; stroke-linecap:round; stroke-linejoin:round; stroke-width:4; stroke-opacity:1; fill:none" points="1792.22,1423.18 1792.22,1404.28 "></polyline>
<polyline clip-path="url(#clip110)" style="stroke:#000000; stroke-linecap:round; stroke-linejoin:round; stroke-width:4; stroke-opacity:1; fill:none" points="1956.29,1423.18 1956.29,1404.28 "></polyline>
<polyline clip-path="url(#clip110)" style="stroke:#000000; stroke-linecap:round; stroke-linejoin:round; stroke-width:4; stroke-opacity:1; fill:none" points="2120.36,1423.18 2120.36,1404.28 "></polyline>
<polyline clip-path="url(#clip110)" style="stroke:#000000; stroke-linecap:round; stroke-linejoin:round; stroke-width:4; stroke-opacity:1; fill:none" points="2284.43,1423.18 2284.43,1404.28 "></polyline>
<path clip-path="url(#clip110)" d="M1602.83 1481.64 L1610.47 1481.64 L1610.47 1455.28 L1602.16 1456.95 L1602.16 1452.69 L1610.42 1451.02 L1615.1 1451.02 L1615.1 1481.64 L1622.74 1481.64 L1622.74 1485.58 L1602.83 1485.58 L1602.83 1481.64 Z" fill="#000000" fill-rule="nonzero" fill-opacity="1"></path><path clip-path="url(#clip110)" d="M1642.18 1454.1 Q1638.57 1454.1 1636.74 1457.66 Q1634.94 1461.2 1634.94 1468.33 Q1634.94 1475.44 1636.74 1479.01 Q1638.57 1482.55 1642.18 1482.55 Q1645.82 1482.55 1647.62 1479.01 Q1649.45 1475.44 1649.45 1468.33 Q1649.45 1461.2 1647.62 1457.66 Q1645.82 1454.1 1642.18 1454.1 M1642.18 1450.39 Q1647.99 1450.39 1651.05 1455 Q1654.13 1459.58 1654.13 1468.33 Q1654.13 1477.06 1651.05 1481.67 Q1647.99 1486.25 1642.18 1486.25 Q1636.37 1486.25 1633.29 1481.67 Q1630.24 1477.06 1630.24 1468.33 Q1630.24 1459.58 1633.29 1455 Q1636.37 1450.39 1642.18 1450.39 Z" fill="#000000" fill-rule="nonzero" fill-opacity="1"></path><path clip-path="url(#clip110)" d="M1770.99 1481.64 L1787.31 1481.64 L1787.31 1485.58 L1765.36 1485.58 L1765.36 1481.64 Q1768.03 1478.89 1772.61 1474.26 Q1777.22 1469.61 1778.4 1468.27 Q1780.64 1465.74 1781.52 1464.01 Q1782.42 1462.25 1782.42 1460.56 Q1782.42 1457.8 1780.48 1456.07 Q1778.56 1454.33 1775.46 1454.33 Q1773.26 1454.33 1770.8 1455.09 Q1768.37 1455.86 1765.6 1457.41 L1765.6 1452.69 Q1768.42 1451.55 1770.87 1450.97 Q1773.33 1450.39 1775.36 1450.39 Q1780.73 1450.39 1783.93 1453.08 Q1787.12 1455.77 1787.12 1460.26 Q1787.12 1462.39 1786.31 1464.31 Q1785.53 1466.2 1783.42 1468.8 Q1782.84 1469.47 1779.74 1472.69 Q1776.64 1475.88 1770.99 1481.64 Z" fill="#000000" fill-rule="nonzero" fill-opacity="1"></path><path clip-path="url(#clip110)" d="M1807.12 1454.1 Q1803.51 1454.1 1801.68 1457.66 Q1799.88 1461.2 1799.88 1468.33 Q1799.88 1475.44 1801.68 1479.01 Q1803.51 1482.55 1807.12 1482.55 Q1810.76 1482.55 1812.56 1479.01 Q1814.39 1475.44 1814.39 1468.33 Q1814.39 1461.2 1812.56 1457.66 Q1810.76 1454.1 1807.12 1454.1 M1807.12 1450.39 Q1812.93 1450.39 1815.99 1455 Q1819.07 1459.58 1819.07 1468.33 Q1819.07 1477.06 1815.99 1481.67 Q1812.93 1486.25 1807.12 1486.25 Q1801.31 1486.25 1798.23 1481.67 Q1795.18 1477.06 1795.18 1468.33 Q1795.18 1459.58 1798.23 1455 Q1801.31 1450.39 1807.12 1450.39 Z" fill="#000000" fill-rule="nonzero" fill-opacity="1"></path><path clip-path="url(#clip110)" d="M1945.13 1466.95 Q1948.49 1467.66 1950.36 1469.93 Q1952.26 1472.2 1952.26 1475.53 Q1952.26 1480.65 1948.74 1483.45 Q1945.22 1486.25 1938.74 1486.25 Q1936.57 1486.25 1934.25 1485.81 Q1931.96 1485.39 1929.51 1484.54 L1929.51 1480.02 Q1931.45 1481.16 1933.76 1481.74 Q1936.08 1482.32 1938.6 1482.32 Q1943 1482.32 1945.29 1480.58 Q1947.61 1478.84 1947.61 1475.53 Q1947.61 1472.48 1945.45 1470.77 Q1943.32 1469.03 1939.51 1469.03 L1935.48 1469.03 L1935.48 1465.19 L1939.69 1465.19 Q1943.14 1465.19 1944.97 1463.82 Q1946.8 1462.43 1946.8 1459.84 Q1946.8 1457.18 1944.9 1455.77 Q1943.02 1454.33 1939.51 1454.33 Q1937.58 1454.33 1935.38 1454.75 Q1933.19 1455.16 1930.55 1456.04 L1930.55 1451.88 Q1933.21 1451.14 1935.52 1450.77 Q1937.86 1450.39 1939.92 1450.39 Q1945.25 1450.39 1948.35 1452.83 Q1951.45 1455.23 1951.45 1459.35 Q1951.45 1462.22 1949.81 1464.21 Q1948.16 1466.18 1945.13 1466.95 Z" fill="#000000" fill-rule="nonzero" fill-opacity="1"></path><path clip-path="url(#clip110)" d="M1971.13 1454.1 Q1967.51 1454.1 1965.69 1457.66 Q1963.88 1461.2 1963.88 1468.33 Q1963.88 1475.44 1965.69 1479.01 Q1967.51 1482.55 1971.13 1482.55 Q1974.76 1482.55 1976.57 1479.01 Q1978.39 1475.44 1978.39 1468.33 Q1978.39 1461.2 1976.57 1457.66 Q1974.76 1454.1 1971.13 1454.1 M1971.13 1450.39 Q1976.94 1450.39 1979.99 1455 Q1983.07 1459.58 1983.07 1468.33 Q1983.07 1477.06 1979.99 1481.67 Q1976.94 1486.25 1971.13 1486.25 Q1965.32 1486.25 1962.24 1481.67 Q1959.18 1477.06 1959.18 1468.33 Q1959.18 1459.58 1962.24 1455 Q1965.32 1450.39 1971.13 1450.39 Z" fill="#000000" fill-rule="nonzero" fill-opacity="1"></path><path clip-path="url(#clip110)" d="M2108.53 1455.09 L2096.73 1473.54 L2108.53 1473.54 L2108.53 1455.09 M2107.3 1451.02 L2113.18 1451.02 L2113.18 1473.54 L2118.11 1473.54 L2118.11 1477.43 L2113.18 1477.43 L2113.18 1485.58 L2108.53 1485.58 L2108.53 1477.43 L2092.93 1477.43 L2092.93 1472.92 L2107.3 1451.02 Z" fill="#000000" fill-rule="nonzero" fill-opacity="1"></path><path clip-path="url(#clip110)" d="M2135.85 1454.1 Q2132.23 1454.1 2130.41 1457.66 Q2128.6 1461.2 2128.6 1468.33 Q2128.6 1475.44 2130.41 1479.01 Q2132.23 1482.55 2135.85 1482.55 Q2139.48 1482.55 2141.29 1479.01 Q2143.11 1475.44 2143.11 1468.33 Q2143.11 1461.2 2141.29 1457.66 Q2139.48 1454.1 2135.85 1454.1 M2135.85 1450.39 Q2141.66 1450.39 2144.71 1455 Q2147.79 1459.58 2147.79 1468.33 Q2147.79 1477.06 2144.71 1481.67 Q2141.66 1486.25 2135.85 1486.25 Q2130.04 1486.25 2126.96 1481.67 Q2123.9 1477.06 2123.9 1468.33 Q2123.9 1459.58 2126.96 1455 Q2130.04 1450.39 2135.85 1450.39 Z" fill="#000000" fill-rule="nonzero" fill-opacity="1"></path><path clip-path="url(#clip110)" d="M2259.13 1451.02 L2277.49 1451.02 L2277.49 1454.96 L2263.41 1454.96 L2263.41 1463.43 Q2264.43 1463.08 2265.45 1462.92 Q2266.47 1462.73 2267.49 1462.73 Q2273.27 1462.73 2276.65 1465.9 Q2280.03 1469.08 2280.03 1474.49 Q2280.03 1480.07 2276.56 1483.17 Q2273.09 1486.25 2266.77 1486.25 Q2264.59 1486.25 2262.32 1485.88 Q2260.08 1485.51 2257.67 1484.77 L2257.67 1480.07 Q2259.76 1481.2 2261.98 1481.76 Q2264.2 1482.32 2266.68 1482.32 Q2270.68 1482.32 2273.02 1480.21 Q2275.36 1478.1 2275.36 1474.49 Q2275.36 1470.88 2273.02 1468.77 Q2270.68 1466.67 2266.68 1466.67 Q2264.8 1466.67 2262.93 1467.08 Q2261.07 1467.5 2259.13 1468.38 L2259.13 1451.02 Z" fill="#000000" fill-rule="nonzero" fill-opacity="1"></path><path clip-path="url(#clip110)" d="M2299.25 1454.1 Q2295.63 1454.1 2293.81 1457.66 Q2292 1461.2 2292 1468.33 Q2292 1475.44 2293.81 1479.01 Q2295.63 1482.55 2299.25 1482.55 Q2302.88 1482.55 2304.69 1479.01 Q2306.51 1475.44 2306.51 1468.33 Q2306.51 1461.2 2304.69 1457.66 Q2302.88 1454.1 2299.25 1454.1 M2299.25 1450.39 Q2305.06 1450.39 2308.11 1455 Q2311.19 1459.58 2311.19 1468.33 Q2311.19 1477.06 2308.11 1481.67 Q2305.06 1486.25 2299.25 1486.25 Q2293.44 1486.25 2290.36 1481.67 Q2287.3 1477.06 2287.3 1468.33 Q2287.3 1459.58 2290.36 1455 Q2293.44 1450.39 2299.25 1450.39 Z" fill="#000000" fill-rule="nonzero" fill-opacity="1"></path><path clip-path="url(#clip110)" d="M1782 1550.25 Q1782 1556.71 1784.64 1560.4 Q1787.31 1564.07 1791.96 1564.07 Q1796.61 1564.07 1799.28 1560.4 Q1801.95 1556.71 1801.95 1550.25 Q1801.95 1543.79 1799.28 1540.13 Q1796.61 1536.44 1791.96 1536.44 Q1787.31 1536.44 1784.64 1540.13 Q1782 1543.79 1782 1550.25 M1801.95 1562.7 Q1800.11 1565.88 1797.28 1567.44 Q1794.47 1568.97 1790.53 1568.97 Q1784.07 1568.97 1779.99 1563.81 Q1775.95 1558.65 1775.95 1550.25 Q1775.95 1541.85 1779.99 1536.69 Q1784.07 1531.54 1790.53 1531.54 Q1794.47 1531.54 1797.28 1533.1 Q1800.11 1534.62 1801.95 1537.81 L1801.95 1532.4 L1807.81 1532.4 L1807.81 1581.6 L1801.95 1581.6 L1801.95 1562.7 Z" fill="#000000" fill-rule="nonzero" fill-opacity="1"></path><path clip-path="url(#clip110)" d="M1840.05 1518.52 L1853.55 1518.52 L1853.55 1523.07 L1845.91 1523.07 L1845.91 1572.09 L1853.55 1572.09 L1853.55 1576.64 L1840.05 1576.64 L1840.05 1518.52 Z" fill="#000000" fill-rule="nonzero" fill-opacity="1"></path><path clip-path="url(#clip110)" d="M1914.5 1539.24 Q1916.7 1535.29 1919.75 1533.41 Q1922.81 1531.54 1926.94 1531.54 Q1932.51 1531.54 1935.54 1535.45 Q1938.56 1539.33 1938.56 1546.53 L1938.56 1568.04 L1932.67 1568.04 L1932.67 1546.72 Q1932.67 1541.59 1930.86 1539.11 Q1929.05 1536.63 1925.32 1536.63 Q1920.77 1536.63 1918.13 1539.65 Q1915.49 1542.68 1915.49 1547.9 L1915.49 1568.04 L1909.6 1568.04 L1909.6 1546.72 Q1909.6 1541.56 1907.78 1539.11 Q1905.97 1536.63 1902.18 1536.63 Q1897.69 1536.63 1895.05 1539.68 Q1892.41 1542.71 1892.41 1547.9 L1892.41 1568.04 L1886.52 1568.04 L1886.52 1532.4 L1892.41 1532.4 L1892.41 1537.93 Q1894.42 1534.66 1897.22 1533.1 Q1900.02 1531.54 1903.87 1531.54 Q1907.75 1531.54 1910.46 1533.51 Q1913.19 1535.48 1914.5 1539.24 Z" fill="#000000" fill-rule="nonzero" fill-opacity="1"></path><path clip-path="url(#clip110)" d="M1946.26 1520.52 L1952.76 1520.52 L1962.75 1560.69 L1972.71 1520.52 L1979.94 1520.52 L1989.93 1560.69 L1999.9 1520.52 L2006.42 1520.52 L1994.48 1568.04 L1986.4 1568.04 L1976.37 1526.79 L1966.25 1568.04 L1958.17 1568.04 L1946.26 1520.52 Z" fill="#000000" fill-rule="nonzero" fill-opacity="1"></path><path clip-path="url(#clip110)" d="M2049.1 1518.52 L2049.1 1576.64 L2035.61 1576.64 L2035.61 1572.09 L2043.21 1572.09 L2043.21 1523.07 L2035.61 1523.07 L2035.61 1518.52 L2049.1 1518.52 Z" fill="#000000" fill-rule="nonzero" fill-opacity="1"></path><polyline clip-path="url(#clip110)" style="stroke:#000000; stroke-linecap:round; stroke-linejoin:round; stroke-width:4; stroke-opacity:1; fill:none" points="1472.3,1423.18 1472.3,123.472 "></polyline>
<polyline clip-path="url(#clip110)" style="stroke:#000000; stroke-linecap:round; stroke-linejoin:round; stroke-width:4; stroke-opacity:1; fill:none" points="1472.3,1423.18 1491.19,1423.18 "></polyline>
<polyline clip-path="url(#clip110)" style="stroke:#000000; stroke-linecap:round; stroke-linejoin:round; stroke-width:4; stroke-opacity:1; fill:none" points="1472.3,1098.25 1491.19,1098.25 "></polyline>
<polyline clip-path="url(#clip110)" style="stroke:#000000; stroke-linecap:round; stroke-linejoin:round; stroke-width:4; stroke-opacity:1; fill:none" points="1472.3,773.326 1491.19,773.326 "></polyline>
<polyline clip-path="url(#clip110)" style="stroke:#000000; stroke-linecap:round; stroke-linejoin:round; stroke-width:4; stroke-opacity:1; fill:none" points="1472.3,448.399 1491.19,448.399 "></polyline>
<polyline clip-path="url(#clip110)" style="stroke:#000000; stroke-linecap:round; stroke-linejoin:round; stroke-width:4; stroke-opacity:1; fill:none" points="1472.3,123.472 1491.19,123.472 "></polyline>
<path clip-path="url(#clip110)" d="M1314.26 1423.63 L1343.94 1423.63 L1343.94 1427.57 L1314.26 1427.57 L1314.26 1423.63 Z" fill="#000000" fill-rule="nonzero" fill-opacity="1"></path><path clip-path="url(#clip110)" d="M1358.06 1436.52 L1374.38 1436.52 L1374.38 1440.46 L1352.43 1440.46 L1352.43 1436.52 Q1355.09 1433.77 1359.68 1429.14 Q1364.28 1424.49 1365.46 1423.15 Q1367.71 1420.62 1368.59 1418.89 Q1369.49 1417.13 1369.49 1415.44 Q1369.49 1412.68 1367.55 1410.95 Q1365.63 1409.21 1362.52 1409.21 Q1360.32 1409.21 1357.87 1409.97 Q1355.44 1410.74 1352.66 1412.29 L1352.66 1407.57 Q1355.49 1406.43 1357.94 1405.85 Q1360.39 1405.27 1362.43 1405.27 Q1367.8 1405.27 1371 1407.96 Q1374.19 1410.65 1374.19 1415.14 Q1374.19 1417.27 1373.38 1419.19 Q1372.59 1421.08 1370.49 1423.68 Q1369.91 1424.35 1366.81 1427.57 Q1363.7 1430.76 1358.06 1436.52 Z" fill="#000000" fill-rule="nonzero" fill-opacity="1"></path><path clip-path="url(#clip110)" d="M1394.19 1408.98 Q1390.58 1408.98 1388.75 1412.54 Q1386.94 1416.08 1386.94 1423.21 Q1386.94 1430.32 1388.75 1433.89 Q1390.58 1437.43 1394.19 1437.43 Q1397.82 1437.43 1399.63 1433.89 Q1401.46 1430.32 1401.46 1423.21 Q1401.46 1416.08 1399.63 1412.54 Q1397.82 1408.98 1394.19 1408.98 M1394.19 1405.27 Q1400 1405.27 1403.06 1409.88 Q1406.13 1414.46 1406.13 1423.21 Q1406.13 1431.94 1403.06 1436.55 Q1400 1441.13 1394.19 1441.13 Q1388.38 1441.13 1385.3 1436.55 Q1382.25 1431.94 1382.25 1423.21 Q1382.25 1414.46 1385.3 1409.88 Q1388.38 1405.27 1394.19 1405.27 Z" fill="#000000" fill-rule="nonzero" fill-opacity="1"></path><path clip-path="url(#clip110)" d="M1424.35 1408.98 Q1420.74 1408.98 1418.91 1412.54 Q1417.11 1416.08 1417.11 1423.21 Q1417.11 1430.32 1418.91 1433.89 Q1420.74 1437.43 1424.35 1437.43 Q1427.99 1437.43 1429.79 1433.89 Q1431.62 1430.32 1431.62 1423.21 Q1431.62 1416.08 1429.79 1412.54 Q1427.99 1408.98 1424.35 1408.98 M1424.35 1405.27 Q1430.16 1405.27 1433.22 1409.88 Q1436.3 1414.46 1436.3 1423.21 Q1436.3 1431.94 1433.22 1436.55 Q1430.16 1441.13 1424.35 1441.13 Q1418.54 1441.13 1415.46 1436.55 Q1412.41 1431.94 1412.41 1423.21 Q1412.41 1414.46 1415.46 1409.88 Q1418.54 1405.27 1424.35 1405.27 Z" fill="#000000" fill-rule="nonzero" fill-opacity="1"></path><path clip-path="url(#clip110)" d="M1314.26 1098.7 L1343.94 1098.7 L1343.94 1102.64 L1314.26 1102.64 L1314.26 1098.7 Z" fill="#000000" fill-rule="nonzero" fill-opacity="1"></path><path clip-path="url(#clip110)" d="M1354.84 1111.6 L1362.48 1111.6 L1362.48 1085.23 L1354.17 1086.9 L1354.17 1082.64 L1362.43 1080.97 L1367.11 1080.97 L1367.11 1111.6 L1374.75 1111.6 L1374.75 1115.53 L1354.84 1115.53 L1354.84 1111.6 Z" fill="#000000" fill-rule="nonzero" fill-opacity="1"></path><path clip-path="url(#clip110)" d="M1384.24 1080.97 L1402.59 1080.97 L1402.59 1084.91 L1388.52 1084.91 L1388.52 1093.38 Q1389.54 1093.03 1390.56 1092.87 Q1391.57 1092.69 1392.59 1092.69 Q1398.38 1092.69 1401.76 1095.86 Q1405.14 1099.03 1405.14 1104.45 Q1405.14 1110.02 1401.67 1113.13 Q1398.19 1116.2 1391.88 1116.2 Q1389.7 1116.2 1387.43 1115.83 Q1385.19 1115.46 1382.78 1114.72 L1382.78 1110.02 Q1384.86 1111.16 1387.08 1111.71 Q1389.31 1112.27 1391.78 1112.27 Q1395.79 1112.27 1398.13 1110.16 Q1400.46 1108.06 1400.46 1104.45 Q1400.46 1100.83 1398.13 1098.73 Q1395.79 1096.62 1391.78 1096.62 Q1389.91 1096.62 1388.03 1097.04 Q1386.18 1097.45 1384.24 1098.33 L1384.24 1080.97 Z" fill="#000000" fill-rule="nonzero" fill-opacity="1"></path><path clip-path="url(#clip110)" d="M1424.35 1084.05 Q1420.74 1084.05 1418.91 1087.62 Q1417.11 1091.16 1417.11 1098.29 Q1417.11 1105.39 1418.91 1108.96 Q1420.74 1112.5 1424.35 1112.5 Q1427.99 1112.5 1429.79 1108.96 Q1431.62 1105.39 1431.62 1098.29 Q1431.62 1091.16 1429.79 1087.62 Q1427.99 1084.05 1424.35 1084.05 M1424.35 1080.35 Q1430.16 1080.35 1433.22 1084.95 Q1436.3 1089.54 1436.3 1098.29 Q1436.3 1107.01 1433.22 1111.62 Q1430.16 1116.2 1424.35 1116.2 Q1418.54 1116.2 1415.46 1111.62 Q1412.41 1107.01 1412.41 1098.29 Q1412.41 1089.54 1415.46 1084.95 Q1418.54 1080.35 1424.35 1080.35 Z" fill="#000000" fill-rule="nonzero" fill-opacity="1"></path><path clip-path="url(#clip110)" d="M1314.26 773.777 L1343.94 773.777 L1343.94 777.713 L1314.26 777.713 L1314.26 773.777 Z" fill="#000000" fill-rule="nonzero" fill-opacity="1"></path><path clip-path="url(#clip110)" d="M1354.84 786.671 L1362.48 786.671 L1362.48 760.305 L1354.17 761.972 L1354.17 757.713 L1362.43 756.046 L1367.11 756.046 L1367.11 786.671 L1374.75 786.671 L1374.75 790.606 L1354.84 790.606 L1354.84 786.671 Z" fill="#000000" fill-rule="nonzero" fill-opacity="1"></path><path clip-path="url(#clip110)" d="M1394.19 759.125 Q1390.58 759.125 1388.75 762.689 Q1386.94 766.231 1386.94 773.361 Q1386.94 780.467 1388.75 784.032 Q1390.58 787.574 1394.19 787.574 Q1397.82 787.574 1399.63 784.032 Q1401.46 780.467 1401.46 773.361 Q1401.46 766.231 1399.63 762.689 Q1397.82 759.125 1394.19 759.125 M1394.19 755.421 Q1400 755.421 1403.06 760.027 Q1406.13 764.611 1406.13 773.361 Q1406.13 782.088 1403.06 786.694 Q1400 791.277 1394.19 791.277 Q1388.38 791.277 1385.3 786.694 Q1382.25 782.088 1382.25 773.361 Q1382.25 764.611 1385.3 760.027 Q1388.38 755.421 1394.19 755.421 Z" fill="#000000" fill-rule="nonzero" fill-opacity="1"></path><path clip-path="url(#clip110)" d="M1424.35 759.125 Q1420.74 759.125 1418.91 762.689 Q1417.11 766.231 1417.11 773.361 Q1417.11 780.467 1418.91 784.032 Q1420.74 787.574 1424.35 787.574 Q1427.99 787.574 1429.79 784.032 Q1431.62 780.467 1431.62 773.361 Q1431.62 766.231 1429.79 762.689 Q1427.99 759.125 1424.35 759.125 M1424.35 755.421 Q1430.16 755.421 1433.22 760.027 Q1436.3 764.611 1436.3 773.361 Q1436.3 782.088 1433.22 786.694 Q1430.16 791.277 1424.35 791.277 Q1418.54 791.277 1415.46 786.694 Q1412.41 782.088 1412.41 773.361 Q1412.41 764.611 1415.46 760.027 Q1418.54 755.421 1424.35 755.421 Z" fill="#000000" fill-rule="nonzero" fill-opacity="1"></path><path clip-path="url(#clip110)" d="M1344.42 448.85 L1374.1 448.85 L1374.1 452.786 L1344.42 452.786 L1344.42 448.85 Z" fill="#000000" fill-rule="nonzero" fill-opacity="1"></path><path clip-path="url(#clip110)" d="M1384.24 431.119 L1402.59 431.119 L1402.59 435.054 L1388.52 435.054 L1388.52 443.526 Q1389.54 443.179 1390.56 443.017 Q1391.57 442.832 1392.59 442.832 Q1398.38 442.832 1401.76 446.003 Q1405.14 449.175 1405.14 454.591 Q1405.14 460.17 1401.67 463.272 Q1398.19 466.35 1391.88 466.35 Q1389.7 466.35 1387.43 465.98 Q1385.19 465.61 1382.78 464.869 L1382.78 460.17 Q1384.86 461.304 1387.08 461.86 Q1389.31 462.415 1391.78 462.415 Q1395.79 462.415 1398.13 460.309 Q1400.46 458.202 1400.46 454.591 Q1400.46 450.98 1398.13 448.874 Q1395.79 446.767 1391.78 446.767 Q1389.91 446.767 1388.03 447.184 Q1386.18 447.6 1384.24 448.48 L1384.24 431.119 Z" fill="#000000" fill-rule="nonzero" fill-opacity="1"></path><path clip-path="url(#clip110)" d="M1424.35 434.198 Q1420.74 434.198 1418.91 437.763 Q1417.11 441.304 1417.11 448.434 Q1417.11 455.54 1418.91 459.105 Q1420.74 462.647 1424.35 462.647 Q1427.99 462.647 1429.79 459.105 Q1431.62 455.54 1431.62 448.434 Q1431.62 441.304 1429.79 437.763 Q1427.99 434.198 1424.35 434.198 M1424.35 430.494 Q1430.16 430.494 1433.22 435.101 Q1436.3 439.684 1436.3 448.434 Q1436.3 457.161 1433.22 461.767 Q1430.16 466.35 1424.35 466.35 Q1418.54 466.35 1415.46 461.767 Q1412.41 457.161 1412.41 448.434 Q1412.41 439.684 1415.46 435.101 Q1418.54 430.494 1424.35 430.494 Z" fill="#000000" fill-rule="nonzero" fill-opacity="1"></path><path clip-path="url(#clip110)" d="M1424.35 109.271 Q1420.74 109.271 1418.91 112.836 Q1417.11 116.377 1417.11 123.507 Q1417.11 130.613 1418.91 134.178 Q1420.74 137.72 1424.35 137.72 Q1427.99 137.72 1429.79 134.178 Q1431.62 130.613 1431.62 123.507 Q1431.62 116.377 1429.79 112.836 Q1427.99 109.271 1424.35 109.271 M1424.35 105.567 Q1430.16 105.567 1433.22 110.174 Q1436.3 114.757 1436.3 123.507 Q1436.3 132.234 1433.22 136.84 Q1430.16 141.423 1424.35 141.423 Q1418.54 141.423 1415.46 136.84 Q1412.41 132.234 1412.41 123.507 Q1412.41 114.757 1415.46 110.174 Q1418.54 105.567 1424.35 105.567 Z" fill="#000000" fill-rule="nonzero" fill-opacity="1"></path><path clip-path="url(#clip110)" d="M1228.36 852.977 L1228.36 825.159 L1233.7 825.159 L1259.33 847.184 L1259.33 825.159 L1264 825.159 L1264 853.773 L1258.66 853.773 L1233.03 831.747 L1233.03 852.977 L1228.36 852.977 Z" fill="#000000" fill-rule="nonzero" fill-opacity="1"></path><path clip-path="url(#clip110)" d="M1214.48 796.036 L1214.48 782.54 L1219.03 782.54 L1219.03 790.179 L1268.05 790.179 L1268.05 782.54 L1272.6 782.54 L1272.6 796.036 L1214.48 796.036 Z" fill="#000000" fill-rule="nonzero" fill-opacity="1"></path><path clip-path="url(#clip110)" d="M1235.2 742.309 Q1231.25 740.113 1229.37 737.057 Q1227.5 734.002 1227.5 729.864 Q1227.5 724.294 1231.41 721.27 Q1235.29 718.247 1242.49 718.247 L1264 718.247 L1264 724.135 L1242.68 724.135 Q1237.55 724.135 1235.07 725.949 Q1232.59 727.763 1232.59 731.487 Q1232.59 736.039 1235.61 738.681 Q1238.64 741.322 1243.86 741.322 L1264 741.322 L1264 747.211 L1242.68 747.211 Q1237.52 747.211 1235.07 749.025 Q1232.59 750.839 1232.59 754.627 Q1232.59 759.115 1235.64 761.756 Q1238.67 764.398 1243.86 764.398 L1264 764.398 L1264 770.286 L1228.36 770.286 L1228.36 764.398 L1233.89 764.398 Q1230.62 762.393 1229.06 759.592 Q1227.5 756.791 1227.5 752.94 Q1227.5 749.057 1229.47 746.351 Q1231.44 743.614 1235.2 742.309 Z" fill="#000000" fill-rule="nonzero" fill-opacity="1"></path><path clip-path="url(#clip110)" d="M1214.48 692.879 L1272.6 692.879 L1272.6 706.375 L1268.05 706.375 L1268.05 698.768 L1219.03 698.768 L1219.03 706.375 L1214.48 706.375 L1214.48 692.879 Z" fill="#000000" fill-rule="nonzero" fill-opacity="1"></path><path clip-path="url(#clip110)" d="M1720.15 12.096 L1728.33 12.096 L1728.33 36.8875 L1758.07 36.8875 L1758.07 12.096 L1766.25 12.096 L1766.25 72.576 L1758.07 72.576 L1758.07 43.7741 L1728.33 43.7741 L1728.33 72.576 L1720.15 72.576 L1720.15 12.096 Z" fill="#000000" fill-rule="nonzero" fill-opacity="1"></path><path clip-path="url(#clip110)" d="M1821.02 48.0275 L1821.02 51.6733 L1786.75 51.6733 Q1787.23 59.3701 1791.36 63.421 Q1795.54 67.4314 1802.95 67.4314 Q1807.24 67.4314 1811.25 66.3781 Q1815.3 65.3249 1819.27 63.2184 L1819.27 70.267 Q1815.26 71.9684 1811.05 72.8596 Q1806.84 73.7508 1802.5 73.7508 Q1791.65 73.7508 1785.29 67.4314 Q1778.97 61.1119 1778.97 50.3365 Q1778.97 39.1965 1784.96 32.6746 Q1791 26.1121 1801.21 26.1121 Q1810.36 26.1121 1815.67 32.0264 Q1821.02 37.9003 1821.02 48.0275 M1813.56 45.84 Q1813.48 39.7232 1810.12 36.0774 Q1806.8 32.4315 1801.29 32.4315 Q1795.05 32.4315 1791.28 35.9558 Q1787.56 39.4801 1786.99 45.8805 L1813.56 45.84 Z" fill="#000000" fill-rule="nonzero" fill-opacity="1"></path><path clip-path="url(#clip110)" d="M1853.87 49.7694 Q1844.84 49.7694 1841.35 51.8354 Q1837.87 53.9013 1837.87 58.8839 Q1837.87 62.8538 1840.46 65.2034 Q1843.09 67.5124 1847.59 67.5124 Q1853.79 67.5124 1857.51 63.1374 Q1861.28 58.7219 1861.28 51.4303 L1861.28 49.7694 L1853.87 49.7694 M1868.74 46.6907 L1868.74 72.576 L1861.28 72.576 L1861.28 65.6895 Q1858.73 69.8214 1854.92 71.8063 Q1851.11 73.7508 1845.61 73.7508 Q1838.64 73.7508 1834.51 69.8619 Q1830.41 65.9325 1830.41 59.3701 Q1830.41 51.7138 1835.52 47.825 Q1840.66 43.9361 1850.83 43.9361 L1861.28 43.9361 L1861.28 43.2069 Q1861.28 38.0623 1857.88 35.2672 Q1854.52 32.4315 1848.4 32.4315 Q1844.51 32.4315 1840.83 33.3632 Q1837.14 34.295 1833.74 36.1584 L1833.74 29.2718 Q1837.83 27.692 1841.68 26.9223 Q1845.52 26.1121 1849.17 26.1121 Q1859.01 26.1121 1863.87 31.2163 Q1868.74 36.3204 1868.74 46.6907 Z" fill="#000000" fill-rule="nonzero" fill-opacity="1"></path><path clip-path="url(#clip110)" d="M1891.46 14.324 L1891.46 27.2059 L1906.81 27.2059 L1906.81 32.9987 L1891.46 32.9987 L1891.46 57.6282 Q1891.46 63.1779 1892.96 64.7578 Q1894.5 66.3376 1899.16 66.3376 L1906.81 66.3376 L1906.81 72.576 L1899.16 72.576 Q1890.53 72.576 1887.25 69.3758 Q1883.97 66.1351 1883.97 57.6282 L1883.97 32.9987 L1878.5 32.9987 L1878.5 27.2059 L1883.97 27.2059 L1883.97 14.324 L1891.46 14.324 Z" fill="#000000" fill-rule="nonzero" fill-opacity="1"></path><path clip-path="url(#clip110)" d="M1943.31 12.096 L1978.07 12.096 L1978.07 18.9825 L1951.5 18.9825 L1951.5 36.8065 L1975.48 36.8065 L1975.48 43.6931 L1951.5 43.6931 L1951.5 72.576 L1943.31 72.576 L1943.31 12.096 Z" fill="#000000" fill-rule="nonzero" fill-opacity="1"></path><path clip-path="url(#clip110)" d="M1990.71 9.54393 L1998.16 9.54393 L1998.16 72.576 L1990.71 72.576 L1990.71 9.54393 Z" fill="#000000" fill-rule="nonzero" fill-opacity="1"></path><path clip-path="url(#clip110)" d="M2012.99 54.671 L2012.99 27.2059 L2020.44 27.2059 L2020.44 54.3874 Q2020.44 60.8284 2022.95 64.0691 Q2025.47 67.2693 2030.49 67.2693 Q2036.52 67.2693 2040.01 63.421 Q2043.53 59.5726 2043.53 52.9291 L2043.53 27.2059 L2050.99 27.2059 L2050.99 72.576 L2043.53 72.576 L2043.53 65.6084 Q2040.82 69.7404 2037.21 71.7658 Q2033.65 73.7508 2028.91 73.7508 Q2021.09 73.7508 2017.04 68.8897 Q2012.99 64.0286 2012.99 54.671 M2031.74 26.1121 L2031.74 26.1121 Z" fill="#000000" fill-rule="nonzero" fill-opacity="1"></path><path clip-path="url(#clip110)" d="M2104.05 27.2059 L2087.65 49.2833 L2104.9 72.576 L2096.11 72.576 L2082.91 54.752 L2069.7 72.576 L2060.91 72.576 L2078.53 48.8377 L2062.41 27.2059 L2071.2 27.2059 L2083.23 43.369 L2095.26 27.2059 L2104.05 27.2059 Z" fill="#000000" fill-rule="nonzero" fill-opacity="1"></path><polyline clip-path="url(#clip113)" style="stroke:#009af9; stroke-linecap:round; stroke-linejoin:round; stroke-width:4; stroke-opacity:1; fill:none" points="1497.22,1423.18 1497.23,1416.68 1497.26,1410.18 1497.31,1403.68 1497.39,1397.19 1497.49,1390.69 1497.6,1384.19 1497.75,1377.69 1497.91,1371.19 1498.1,1364.69 1498.31,1358.19 1498.54,1351.7 1498.79,1345.2 1499.07,1338.7 1499.38,1332.2 1499.7,1325.7 1500.06,1319.2 1500.44,1312.7 1500.84,1306.21 1501.27,1299.71 1501.73,1293.21 1502.22,1286.71 1502.73,1280.21 1503.27,1273.71 1503.84,1267.21 1504.45,1260.72 1505.08,1254.22 1505.75,1247.72 1506.44,1241.22 1507.17,1234.72 1507.94,1228.22 1508.74,1221.73 1509.58,1215.23 1510.45,1208.73 1511.36,1202.23 1512.31,1195.73 1513.3,1189.23 1514.33,1182.73 1515.4,1176.24 1516.52,1169.74 1517.67,1163.24 1518.88,1156.74 1520.13,1150.24 1521.43,1143.74 1522.77,1137.24 1524.17,1130.75 1525.61,1124.25 1527.11,1117.75 1528.66,1111.25 1530.27,1104.75 1531.93,1098.25 1533.65,1091.75 1535.43,1085.26 1537.26,1078.76 1539.16,1072.26 1541.12,1065.76 1543.14,1059.26 1545.23,1052.76 1547.39,1046.26 1549.61,1039.77 1551.9,1033.27 1554.26,1026.77 1556.69,1020.27 1559.2,1013.77 1561.78,1007.27 1564.43,1000.77 1567.16,994.276 1569.97,987.778 1572.86,981.279 1575.82,974.781 1578.87,968.282 1582,961.784 1585.22,955.285 1588.52,948.787 1591.91,942.288 1595.38,935.789 1598.94,929.291 1602.59,922.792 1606.34,916.294 1610.17,909.795 1614.09,903.297 1618.11,896.798 1622.22,890.3 1626.43,883.801 1630.73,877.303 1635.13,870.804 1639.62,864.306 1644.21,857.807 1648.9,851.308 1653.68,844.81 1658.57,838.311 1663.55,831.813 1668.63,825.314 1673.81,818.816 1679.09,812.317 1684.47,805.819 1689.94,799.32 1695.52,792.822 1701.19,786.323 1706.96,779.825 1712.83,773.326 1718.8,766.827 1724.86,760.329 1731.02,753.83 1737.28,747.332 1743.62,740.833 1750.06,734.335 1756.6,727.836 1763.22,721.338 1769.93,714.839 1776.73,708.341 1783.62,701.842 1790.59,695.344 1797.65,688.845 1804.79,682.346 1812.01,675.848 1819.3,669.349 1826.67,662.851 1834.11,656.352 1841.63,649.854 1849.21,643.355 1856.85,636.857 1864.56,630.358 1872.33,623.86 1880.16,617.361 1888.04,610.863 1895.98,604.364 1903.96,597.865 1911.98,591.367 1920.05,584.868 1928.15,578.37 1936.29,571.871 1944.46,565.373 1952.66,558.874 1960.88,552.376 1969.11,545.877 1977.36,539.379 1985.62,532.88 1993.89,526.382 2002.16,519.883 2010.43,513.384 2018.69,506.886 2026.94,500.387 2035.17,493.889 2043.39,487.39 2051.57,480.892 2059.73,474.393 2067.86,467.895 2075.94,461.396 2083.98,454.898 2091.97,448.399 2099.9,441.901 2107.78,435.402 2115.59,428.903 2123.34,422.405 2131.01,415.906 2138.6,409.408 2146.1,402.909 2153.52,396.411 2160.85,389.912 2168.07,383.414 2175.19,376.915 2182.21,370.417 2189.11,363.918 2195.89,357.42 2202.55,350.921 2209.08,344.422 2215.48,337.924 2221.74,331.425 2227.86,324.927 2233.84,318.428 2239.67,311.93 2245.34,305.431 2250.85,298.933 2256.2,292.434 2261.39,285.936 2266.4,279.437 2271.24,272.939 2275.9,266.44 2280.38,259.941 2284.68,253.443 2288.79,246.944 2292.71,240.446 2296.43,233.947 2299.95,227.449 2303.28,220.95 2306.41,214.452 2309.32,207.953 2312.04,201.455 2314.54,194.956 2316.83,188.458 2318.91,181.959 2320.78,175.46 2322.43,168.962 2323.86,162.463 2325.07,155.965 2326.07,149.466 2326.84,142.968 2327.39,136.469 2327.73,129.971 2327.84,123.472 "></polyline>
</svg>